<svg
   version="1.1"
   id="svg1"
   width="500.04614"
   height="250.73888"
   viewBox="0 0 214.04614 101.73888"
   xmlns="http://www.w3.org/2000/svg"
   xmlns:svg="http://www.w3.org/2000/svg">
  <defs
     id="defs1" />
  <g
     id="g1"
     transform="translate(-2.8800001,-9.9700327)">
    <path
       style="fill:#eceef1"
       d="m 46.72,111.34413 c -0.616,-0.33342 -1.68103,-0.76547 -2.366734,-0.9601 -1.39422,-0.39573 -4.285394,-2.45937 -4.940287,-3.52623 -0.234861,-0.38261 -0.608313,-1.29013 -0.829893,-2.01672 -0.221581,-0.7266 -1.145421,-2.61104 -2.05298,-4.18765 -1.87006,-3.248677 -1.981995,-4.031043 -1.129446,-7.894177 0.58086,-2.632033 2.147348,-6.154057 3.816153,-8.580073 C 39.823566,83.297117 40.32,82.472328 40.32,82.346317 c 0,-0.477463 2.569005,-2.599196 3.399501,-2.807637 0.477332,-0.119803 1.365055,-0.785016 1.972717,-1.478252 0.607663,-0.693235 1.339503,-1.256207 1.626311,-1.251048 0.498185,0.009 2.601471,1.697889 2.601471,2.088966 0,0.103053 0.18,0.395315 0.4,0.649472 0.22,0.254157 0.976,1.151157 1.68,1.993334 0.704,0.842177 2.069067,2.027945 3.033482,2.635039 1.969497,1.239789 5.43995,2.543809 6.769965,2.543809 0.48333,0 0.967779,0.144 1.076553,0.32 0.108774,0.176 0.657273,0.303296 1.218886,0.28288 C 64.660499,87.302463 64.868,87.219905 64.56,87.139416 64.252,87.058927 64,86.787631 64,86.536536 64,86.285441 63.871611,86.08 63.714691,86.08 c -0.15692,0 -0.375664,-0.36 -0.486097,-0.8 -0.110433,-0.44 -0.329454,-0.8 -0.486715,-0.8 -0.15726,0 -0.675255,-1.044 -1.151101,-2.32 -0.475845,-1.276 -1.640286,-4.068798 -2.587646,-6.206217 l -1.722472,-3.886217 0.151544,-3.111204 c 0.157279,-3.228935 0.448897,-4.029634 1.379562,-3.78788 0.346858,0.0901 1.072259,-0.392198 1.974861,-1.313035 0.784644,-0.800496 1.540644,-1.455447 1.68,-1.455447 0.616029,0 0.128467,0.849373 -1.492733,2.600463 -1.153878,1.246326 -1.818296,2.270805 -1.958947,3.02054 -0.240646,1.282752 0.515075,4.836797 1.560541,7.338997 0.806391,1.930003 4.379638,6.904824 6.144512,8.554642 0.176,0.164526 1.038945,0.683038 1.917656,1.152248 2.565382,1.369853 1.439498,2.316415 -1.173089,0.986248 -1.496307,-0.761827 -2.054552,-1.305262 -3.529256,-3.435626 -0.526351,-0.760369 -1.011218,-1.328272 -1.077483,-1.262007 -0.340877,0.340877 0.623304,2.479893 1.488716,3.302686 1.318039,1.253129 1.988381,2.600033 1.755603,3.527496 -0.154013,0.613638 -0.355623,0.731055 -1.06604,0.620858 -0.481859,-0.07474 -2.11682,-0.214151 -3.633248,-0.309794 C 58.445357,88.310218 56.575481,87.554444 55.047553,85.928039 54.63004,85.483618 54.075133,85.12 53.814425,85.12 53.243579,85.12 51.2,83.61025 51.2,83.188522 c 0,-0.164399 -0.444351,-1.021071 -0.987448,-1.903715 -1.133719,-1.842529 -1.565621,-1.942369 -4.50099,-1.04046 -2.421707,0.744083 -3.61192,1.724346 -5.337105,4.395653 -1.302824,2.017316 -2.215091,4.406643 -3.298832,8.64 -0.530171,2.070975 -0.214705,5.15106 0.605877,5.915549 0.380456,0.354448 0.74696,0.644451 0.814453,0.644451 0.06749,0 0.377952,-0.9 0.689906,-2 1.450407,-5.114356 2.126853,-6.583021 3.717203,-8.070608 1.86188,-1.74157 4.588023,-3.049392 6.356431,-3.049392 1.934198,0 1.731319,0.81983 -0.261279,1.055824 -0.858981,0.101734 -2.262981,0.503894 -3.12,0.893689 -1.839592,0.836696 -4.619505,3.382664 -4.378696,4.010203 0.112689,0.293663 0.618734,-0.06692 1.55436,-1.107562 1.354554,-1.50659 1.452173,-1.553077 4.139012,-1.971048 2.224693,-0.346079 3.241851,-0.35304 5.310635,-0.03634 5.564111,0.851768 13.245639,2.965903 16.454642,4.528699 3.82832,1.864406 5.19231,2.093951 8.481831,1.427402 1.496,-0.303131 3.461025,-0.649273 4.366722,-0.769204 C 83.575909,94.51739 84.48,93.984786 84.48,93.176823 c 0,-0.383283 0.08946,-0.415354 0.371607,-0.133211 0.282142,0.282142 0.575483,0.251174 1.218444,-0.128633 0.780547,-0.46108 0.830737,-0.616669 0.641153,-1.987606 C 86.598077,90.109315 86.309743,88.792 86.07046,88 c -0.437817,-1.449132 -1.848921,-4.008205 -2.081774,-3.775353 -0.06881,0.06881 0.09557,0.910418 0.365304,1.870234 0.911747,3.244386 1.070722,3.982409 1.078376,5.006234 0.0042,0.561613 -0.142138,1.113678 -0.325192,1.226812 -0.215676,0.133295 -0.260048,-0.08427 -0.126063,-0.618112 0.127307,-0.507233 -0.112292,-1.900957 -0.623496,-3.626812 C 83.900973,86.541351 83.326927,84.56 83.081958,83.68 82.7236,82.392677 82.511414,82.093584 81.996182,82.149512 81.52429,82.200735 81.308065,81.980325 81.174356,81.311779 81.074559,80.812794 80.511403,79.413514 79.922899,78.202267 79.334394,76.99102 78.393651,74.682805 77.832358,73.0729 77.271066,71.462995 76.070718,68.726995 75.164919,66.9929 73.618025,64.031471 72.713711,61.12 73.340775,61.12 c 0.153621,0 0.364242,0.221326 0.468046,0.491835 0.321768,0.838513 1.960363,1.463035 3.637827,1.386493 1.603586,-0.07317 3.015405,-0.565848 1.753352,-0.611862 -0.389536,-0.0142 -0.01384,-0.308837 0.96,-0.75287 1.892002,-0.862678 2.146732,-1.137692 2.99749,-3.236189 0.356186,-0.878574 0.655463,-1.362993 0.66506,-1.076487 0.0096,0.286507 -0.200482,1.042507 -0.466844,1.68 -0.645059,1.543845 -0.178988,1.475132 0.724294,-0.106782 0.768159,-1.345274 0.958477,-3.34898 0.353604,-3.722813 -0.250231,-0.154651 -0.31826,0.02536 -0.21457,0.567782 0.09101,0.4761 0.0033,0.794226 -0.219034,0.794226 -0.420334,0 -0.235389,-1.541458 0.220804,-1.840324 0.156984,-0.102844 0.372585,-1.920493 0.479113,-4.039218 C 84.9157,46.362116 84.692059,45.318894 82.656109,41.12 81.307222,38.338089 80.907183,37.668571 80.4,37.344099 79.947103,37.054357 79.85088,35.84 80.280818,35.84 c 0.15445,0 0.458766,0.214414 0.676258,0.476477 0.217492,0.262062 0.508544,0.406574 0.646782,0.321139 0.138237,-0.08544 0.877921,0.128987 1.643742,0.476495 1.739361,0.789275 2.478174,0.796069 5.254042,0.04832 1.220097,-0.328665 2.422358,-0.652665 2.671692,-0.72 0.249333,-0.06733 0.695996,-0.338427 0.992585,-0.602427 0.296589,-0.264 0.956589,-0.844485 1.466667,-1.289966 1.676697,-1.46436 2.139005,-2.204797 2.397465,-3.839805 0.14038,-0.888033 0.479046,-2.063245 0.752592,-2.611582 0.273547,-0.54834 0.497357,-1.614357 0.497357,-2.36893 0,-0.754572 0.154161,-1.467227 0.342579,-1.583676 C 97.830648,24.017452 97.884605,23.457529 97.76,22.72 c -0.124605,-0.737529 -0.07065,-1.297452 0.137421,-1.426045 0.21648,-0.133792 0.346161,0.178037 0.35231,0.84716 0.0072,0.788937 0.08388,0.932211 0.30058,0.562 0.384785,-0.657365 0.718817,-3.50398 0.410703,-3.500009 -0.302851,0.0039 -2.714099,1.909462 -4.401014,3.478029 -0.704,0.65461 -2.144,1.68715 -3.2,2.294533 -1.879528,1.081054 -1.990825,1.103225 -5.28,1.051832 -1.848,-0.02887 -4.348545,-0.149894 -5.556766,-0.268932 -1.516396,-0.1494 -2.13182,-0.111346 -1.987068,0.122868 0.11583,0.187416 -0.404881,0.116095 -1.163233,-0.159327 -0.755113,-0.274245 -2.373755,-0.52191 -3.596982,-0.550368 l -2.22405,-0.05174 -0.583427,1.6 c -0.829687,2.275344 -1.164881,2.93297 -2.713169,5.323035 -1.84536,2.84865 -1.824715,3.278157 0.144695,3.010246 1.118328,-0.152134 2.111938,-0.0238 3.76,0.485638 2.782794,0.860198 4.359916,2.352991 4.928628,4.665095 0.210501,0.855792 0.862717,2.347986 1.449369,3.315986 1.25978,2.078689 1.782003,4.277356 1.782003,7.502601 0,2.290737 -0.02904,2.376598 -1.131135,3.344249 -0.947207,0.83166 -1.395057,0.99315 -2.754236,0.99315 -1.311287,0 -1.587716,0.09221 -1.438908,0.48 0.236018,0.615054 -0.267096,0.616533 -0.992063,0.0029 -0.310012,-0.262396 -1.51855,-1.090396 -2.685641,-1.84 C 70.150926,53.253312 68.289592,52.026055 67.181719,51.275678 64.859938,49.703106 62.658987,48.96 60.323081,48.96 c -1.880254,0 -2.502695,0.381081 -2.980136,1.824548 -0.186383,0.563501 -0.907874,1.787501 -1.603311,2.72 C 54.412119,55.284585 52.8,58.154426 52.8,58.737585 c 0,0.613306 -1.726033,1.999954 -3.2,2.570792 -0.792,0.306726 -2.414104,1.180276 -3.604676,1.941223 -4.597576,2.938514 -8.05804,2.66899 -12.962416,-1.0096 -1.038631,-0.779039 -1.422496,-1.382243 -2.036401,-3.2 C 30.341358,57.100118 30.24,56.189072 30.24,52.240196 v -4.559805 l -1.017143,-1.95e-4 c -1.877685,-3.61e-4 -2.138866,0.62872 -1.921434,4.62796 0.147362,2.710432 0.37751,3.986508 0.98957,5.486775 1.012563,2.48197 3.285227,6.822905 3.978462,7.59912 0.816659,0.914413 2.715307,1.772414 5.415052,2.447069 2.780994,0.694957 1.808435,0.862683 11.595493,-1.999738 5.698305,-1.666584 5.613633,-1.651057 6.109396,-1.12034 0.369757,0.395826 0.711354,0.239101 2.440273,-1.119604 C 58.935351,62.732516 59.84,61.890724 59.84,61.73079 c 0,-0.159935 0.216,-0.29079 0.48,-0.29079 0.264,0 0.48,0.08376 0.48,0.186145 0,0.438351 -2.356542,3.013855 -2.757626,3.013855 -0.242291,0 -0.998398,0.504 -1.680236,1.12 -0.681839,0.616 -1.510253,1.124897 -1.840922,1.130881 -0.330669,0.006 -1.383485,0.716602 -2.339591,1.579148 -1.399738,1.262768 -2.210108,1.703197 -4.16,2.260925 C 44.53492,71.728257 42.619062,71.964323 40.8,71.620781 37.534766,71.004119 36.877447,70.988327 35.396927,71.490977 33.237644,72.224072 32.32,72.16677 32.32,71.298839 c 0,-0.632589 0.03912,-0.648902 0.4,-0.1668 0.372423,0.497521 0.521341,0.498169 2.16,0.0094 l 1.76,-0.524964 -0.96,-0.413803 c -1.221437,-0.526495 -2.167282,-0.547388 -2.656,-0.05867 -0.298667,0.298667 -0.384,0.298667 -0.384,0 0,-0.2112 0.144,-0.384 0.32,-0.384 0.672128,0 0.255148,-0.682771 -1.604648,-2.627479 -1.061225,-1.109678 -2.284476,-2.80208 -2.72674,-3.772521 -0.441151,-0.968 -1.013067,-2.12 -1.270924,-2.56 -2.051655,-3.500884 -2.44882,-4.732757 -2.395228,-7.429209 0.06687,-3.364839 0.03587,-4.159125 -0.170385,-4.365383 C 24.586879,48.800214 22.187477,49.944579 19.84,51.36724 17.838949,52.579954 16,54.139675 16,54.624171 c 0,0.179894 -0.327552,0.264465 -0.727893,0.187935 -0.474016,-0.09061 -1.032071,0.142756 -1.6,0.669096 -0.972967,0.901715 -1.112646,0.632169 -0.39328,-0.758931 0.302018,-0.584038 0.361098,-0.998708 0.16,-1.122994 C 12.958578,53.302465 13.056067,52.8 13.593903,52.8 c 0.583461,0 0.944648,-1.299349 0.633605,-2.279359 C 13.965555,49.695302 12.291984,46.840945 11.576957,46 11.180256,45.53344 10.548446,45.44 7.790404,45.44 5.5819195,45.44 4.48,45.321993 4.48,45.085482 4.48,44.83449 5.4144606,44.797847 7.68,44.96 c 2.2655394,0.162153 3.2,0.12551 3.2,-0.125482 C 10.88,44.315982 9.6783443,43.2 9.12,43.2 8.856,43.2 8.64,43.056 8.64,42.88 8.64,42.382966 6.1752852,42.490128 5.9813191,42.995596 5.7838245,43.510258 4.5522811,43.895839 4.3177904,43.516425 4.2282246,43.371504 4.7542633,42.68268 5.4867654,41.985705 6.4158777,41.101655 6.7557788,40.554801 6.61087,40.177174 6.4726573,39.816998 6.1974846,39.701148 5.7885065,39.830952 4.693806,40.178397 4.7975158,39.491408 6.0132534,38.342197 7.7698177,36.681754 8.8138336,36.065523 12,34.808517 16.480018,33.041061 19.426413,32.32 22.168565,32.32 c 1.682493,0 2.948803,-0.1975 4.050447,-0.631727 2.711438,-1.068749 7.924994,-1.477646 12.59501,-0.98782 4.960984,0.520344 8.711241,0.182559 8.352499,-0.752307 -0.09532,-0.248409 0.357077,-0.551731 1.199214,-0.804042 2.313684,-0.693196 6.641806,-2.860813 7.064864,-3.538236 0.221843,-0.355227 0.59185,-0.645868 0.822237,-0.645868 0.590268,0 2.437903,-1.879485 3.077414,-3.130463 0.295354,-0.577754 0.660964,-0.973852 0.812468,-0.880218 0.256197,0.158339 -0.743619,2.307145 -2.572138,5.528041 -0.423819,0.746549 -0.967367,1.358549 -1.207885,1.36 -0.30268,0.0018 -0.38624,0.269764 -0.271432,0.870346 0.110221,0.576583 -0.01147,1.012779 -0.362695,1.300103 -0.390438,0.319399 -0.424037,0.475924 -0.128568,0.59896 0.519576,0.216357 0.523431,0.847708 0.0041,0.674604 -0.264161,-0.08805 -0.63224,0.828988 -1.106244,2.756123 -0.390699,1.588446 -1.001191,3.281451 -1.356649,3.762234 -0.355458,0.480782 -0.742294,1.474542 -0.859636,2.208354 -0.177042,1.107161 -0.586668,1.692628 -2.407134,3.440445 -2.796067,2.684484 -3.453452,3.10356 -6.189503,3.945737 -1.639225,0.504566 -3.002381,0.68151 -5.052136,0.655789 -2.704656,-0.03394 -3.73219,-0.303714 -4.649071,-1.220594 -0.65003,-0.650031 -1.448261,-0.543687 -1.262113,0.168143 0.106688,0.407977 -0.0064,0.585671 -0.356282,0.56 -1.492758,-0.109516 -1.757345,7.68615 -0.355698,10.480108 0.703008,1.401333 0.799339,1.481968 0.959571,0.803216 0.164085,-0.695076 0.24015,-0.642032 0.965864,0.673546 0.433264,0.785423 1.113664,1.590525 1.511999,1.789117 0.398336,0.198592 1.249697,0.886526 1.891913,1.528743 1.491803,1.491802 2.447248,1.50191 4.466059,0.04724 0.855218,-0.616232 1.86441,-1.255143 2.242649,-1.419802 0.378239,-0.16466 0.882239,-0.567053 1.12,-0.894207 C 45.673576,59.869506 47.7334,58.56 48.322426,58.56 c 0.223786,0 -0.09747,0.342264 -0.713902,0.760586 -0.976476,0.662654 -4.601358,3.510887 -5.048524,3.966852 -0.088,0.08973 0.402478,0.07617 1.089952,-0.03013 0.687473,-0.106305 1.623473,-0.549019 2.08,-0.98381 0.456526,-0.434791 1.682921,-1.302597 2.72532,-1.928458 1.816879,-1.090862 3.05814,-2.436973 3.06262,-3.321323 0.0013,-0.261264 -0.396429,-0.112306 -1.068097,0.4 C 49.861182,57.872672 49.269954,58.24 49.135953,58.24 c -0.41032,0 1.609526,-1.755979 2.47172,-2.14882 0.925159,-0.421531 2.748829,-3.03764 4.407579,-6.322806 L 57.150505,47.52 l 1.904747,0.104721 c 5.140637,0.282626 9.820187,1.442914 10.54422,2.614424 0.256866,0.415618 3.535775,2.52166 4.492025,2.885226 2.04231,0.776485 2.993393,-0.931441 3.109296,-5.583584 L 77.28,44.361575 76.16,43.601691 c -1.388428,-0.942005 -4.551943,-3.956415 -4.356853,-4.151504 0.07897,-0.07897 0.911567,0.600243 1.850217,1.509361 3.480595,3.371089 3.780711,2.739719 0.643598,-1.353972 -2.069168,-2.700106 -3.363373,-3.576224 -5.14647,-3.483923 -3.050132,0.157887 -4.816323,1.526656 -10.732592,8.317586 -1.386895,1.591933 -2.653118,2.813159 -2.813829,2.713834 C 55.352176,46.997393 55.997053,46.063666 57.118714,44.96 57.920232,44.171341 59.2,42.483735 59.2,42.215448 59.2,42.052952 58.828,41.92 58.373333,41.92 c -1.023126,0 -0.888703,-0.642597 0.250707,-1.198486 0.79689,-0.388782 3.296988,-3.405241 3.93596,-4.748878 1.027092,-2.159778 4.658386,-7.761823 5.672562,-8.751135 0.655909,-0.639828 1.353996,-1.626414 1.551304,-2.192412 0.345233,-0.990337 0.55064,-1.099635 2.136134,-1.136642 0.396,-0.0092 0.72,-0.19481 0.72,-0.41237 0,-0.217561 0.324,-0.44158 0.72,-0.497821 0.998007,-0.141739 5.974901,0.601811 6.428667,0.960446 0.805746,0.636824 3.857259,1.097498 5.969485,0.901187 2.797174,-0.25997 5.250098,-1.381713 7.028787,-3.214327 0.874853,-0.901375 1.619869,-1.408965 1.92559,-1.311933 0.289737,0.09196 0.749705,-0.176041 1.097884,-0.639682 C 96.139992,19.239076 96.605476,18.88 96.844824,18.88 97.084171,18.88 97.28,18.667698 97.28,18.408218 c 0,-0.259481 0.412916,-0.68531 0.917592,-0.946288 0.76078,-0.393414 1.015148,-0.40317 1.48845,-0.05708 0.507038,0.370758 0.549818,0.789559 0.382658,3.746288 -0.16915,2.992035 -0.827795,6.036874 -2.104497,9.728865 -0.182584,0.528 -0.452387,1.464 -0.599563,2.08 -0.180014,0.753448 -0.553335,1.257342 -1.140682,1.53965 -0.499398,0.240035 -1.202861,1.070419 -1.643562,1.9401 -0.98932,1.952329 -1.411723,2.280568 -3.278431,2.547589 -1.428359,0.204318 -6.165401,-0.230183 -8.185582,-0.750814 -0.768084,-0.197947 -0.85599,-0.149847 -0.672316,0.367877 0.116216,0.327579 0.443728,0.883598 0.727805,1.235598 0.284077,0.352 0.752487,1.072 1.040912,1.6 2.956644,5.412541 3.343815,6.965694 2.804498,11.250386 C 86.207878,59.12083 82.404341,64 78.200921,64 77.606414,64 77.12,64.10846 77.12,64.241023 c 0,0.132563 0.472193,0.905172 1.049317,1.71691 0.919293,1.293005 1.838374,3.135538 4.051402,8.122067 0.918373,2.069334 1.237781,3.045531 1.933937,5.91064 0.700097,2.881329 1.124968,3.666625 1.582892,2.925688 0.148994,-0.241077 0.433347,-0.337923 0.631895,-0.215213 0.198548,0.122709 0.272375,0.366501 0.164059,0.54176 -0.403979,0.653652 0.227869,2.437944 1.224183,3.456998 1.197843,1.225183 3.963972,2.532289 5.928812,2.8016 1.556246,0.213307 1.909171,0.548988 1.321574,1.256999 -0.301165,0.362882 -0.703662,0.431637 -1.547549,0.264356 -0.627287,-0.124345 -1.314325,-0.23135 -1.526751,-0.237788 -0.212426,-0.0064 -0.459907,-0.203707 -0.549957,-0.438373 C 91.293764,90.112 90.994501,89.92 90.718785,89.92 c -0.538201,0 -2.095607,-0.900599 -2.461385,-1.423341 -0.445125,-0.636139 -0.632303,0.127373 -0.287416,1.17239 0.409636,1.24121 1.270452,2.07456 2.29858,2.225239 1.050856,0.15401 1.077804,0.72281 0.05877,1.240493 C 89.8393,93.382708 88.504,94.186037 87.36,94.919956 84.024906,97.059545 82.779699,97.371994 76.96,97.529537 66.413242,97.815044 66.856168,97.846845 64.591456,96.641503 63.474155,96.046845 61.912,95.098602 61.12,94.534296 59.469983,93.358647 56.005947,91.73662 53.652883,91.037835 51.102271,90.280384 47.829205,90.413749 45.92,91.352919 c -0.88,0.432887 -1.463752,0.79157 -1.297227,0.797074 0.166526,0.0055 -0.130571,0.478007 -0.660215,1.050007 -0.529644,0.572 -1.132847,1.4 -1.340451,1.84 -0.207604,0.44 -0.553414,1.045093 -0.768466,1.344652 -0.633634,0.882623 0.05235,1.120981 0.721129,0.250567 0.828693,-1.078548 0.783613,-0.620241 -0.08356,0.849503 -0.895491,1.517744 -0.906618,3.904738 -0.02747,5.892208 0.748155,1.69133 2.871836,3.872 4.522863,4.64423 1.721602,0.80524 2.966869,1.74579 2.758268,2.08331 -0.100456,0.16254 -0.714149,0.30011 -1.363762,0.30571 -1.109311,0.01 -1.143253,0.0388 -0.558314,0.4812 1.034519,0.7824 0.165423,1.13921 -1.102801,0.45275 z m 0.925656,-1.55613 c 0.325624,-0.2062 -0.140554,-0.57118 -1.730819,-1.3551 -1.282926,-0.63242 -2.562827,-1.55335 -3.117538,-2.24315 -0.841547,-1.0465 -2.250068,-4.31607 -2.706757,-6.283129 -0.233521,-1.005832 -0.803839,-0.724215 -1.136983,0.561429 -0.22909,0.88409 -0.10843,1.40459 0.711872,3.07086 0.543245,1.10348 1.488759,2.44626 2.101143,2.98394 0.612384,0.53768 1.113426,1.24335 1.113426,1.56815 0,0.39753 0.496821,0.80868 1.52,1.25788 1.687769,0.74098 2.578616,0.86151 3.245656,0.43912 z M 41.580268,94.96 c 0.04598,-0.559291 -0.546784,-0.175813 -0.888903,0.575057 -0.417692,0.916735 -0.483385,2.360679 -0.147252,3.236629 0.15381,0.400821 0.348386,-0.06779 0.620269,-1.493828 C 41.382267,96.135036 41.569416,95.092 41.580268,94.96 Z M 79.6,97.059416 c -0.308,-0.08049 -0.812,-0.08049 -1.12,0 -0.308,0.08049 -0.056,0.146343 0.56,0.146343 0.616,0 0.868,-0.06585 0.56,-0.146343 z m -8.88,-0.304138 c 0,-0.742555 -3.672666,-2.533143 -6.88,-3.354306 -1.408,-0.360486 -2.72718,-0.794168 -2.931511,-0.963739 -0.238854,-0.198221 -0.440921,-0.196003 -0.565895,0.0062 -0.241254,0.390356 2.487346,2.224037 5.257406,3.533097 1.411679,0.667123 2.568389,0.983036 3.6,0.983208 0.836,1.38e-4 1.52,-0.09187 1.52,-0.20447 z M 85.6,94.72 c 0.108774,-0.176 0.05377,-0.32 -0.122229,-0.32 -0.176,0 -0.408997,0.144 -0.517771,0.32 -0.108774,0.176 -0.05377,0.32 0.122229,0.32 0.176,0 0.408997,-0.144 0.517771,-0.32 z m 2.764695,-1.699639 c 0.484083,-0.36838 0.478929,-0.485239 -0.06659,-1.509823 L 87.706826,90.4 87.693413,91.421115 C 87.686036,91.982728 87.536,92.531226 87.36,92.64 c -0.451219,0.278869 -0.398233,0.80199 0.08,0.789823 0.22,-0.0056 0.636113,-0.189855 0.924695,-0.409462 z M 47.640997,78.430877 C 48.138463,78.115787 47.858644,77.44 47.230711,77.44 c -0.226335,0 -0.672155,0.288 -0.990711,0.64 -0.563966,0.623176 -0.558961,0.639871 0.190404,0.6351 0.423278,-0.0027 0.968045,-0.130595 1.210593,-0.284223 z M 81.10102,76.909784 c -0.292851,-0.676381 -0.591798,-1.075541 -0.664326,-0.887022 -0.07253,0.188518 0.108131,0.908518 0.401463,1.6 0.293332,0.691481 0.592278,1.090641 0.664326,0.887022 0.07205,-0.203619 -0.108611,-0.923619 -0.401463,-1.6 z m -1.250744,-5.785045 c -1.075217,-1.96379 -2.073983,-3.251764 -2.08316,-2.686372 -0.01174,0.723457 2.703277,5.273877 2.815435,4.718718 0.0564,-0.279184 -0.273121,-1.19374 -0.732275,-2.032346 z M 47.294914,70.18199 c 1.936927,-0.491847 5.822073,-2.77167 5.415753,-3.17799 -0.07606,-0.07606 -1.444182,0.360046 -3.040262,0.969133 -1.737415,0.663022 -4.33107,1.326829 -6.463181,1.654152 -3.350772,0.514414 -3.915207,0.79653 -2.407224,1.203178 0.989275,0.266772 4.122612,-0.04607 6.494914,-0.648473 z M 35.2,68.836803 C 35.2,68.51267 34.065438,67.736416 33.12,67.41369 32.671373,67.260551 32.79249,67.483 33.525049,68.157613 34.567064,69.117207 35.2,69.373861 35.2,68.836803 Z m 2.153333,0.08986 C 37.247,68.820333 36.971,68.808965 36.74,68.901404 c -0.255274,0.102152 -0.179448,0.177978 0.193333,0.193333 0.337334,0.0139 0.526334,-0.06174 0.42,-0.16807 z M 43.12,68.918308 C 43.90751,68.707264 44.10723,68.16 43.396739,68.16 c -0.243793,0 -0.927793,0.210364 -1.52,0.467475 -0.984137,0.42727 -1.007937,0.468176 -0.276739,0.47563 0.44,0.0045 1.124,-0.07867 1.52,-0.184797 z m 5.84,-1.382938 c 1.700963,-0.791045 0.883419,-0.640805 -1.6,0.294032 -1.055462,0.39731 -1.375707,0.605103 -0.8,0.519086 0.528,-0.07889 1.608,-0.444792 2.4,-0.813118 z M 26.92731,55.929177 C 26.728758,55.176129 26.593635,54.128 26.627038,53.6 c 0.200044,-3.162103 -0.479512,-4.615748 -0.887117,-1.897642 -0.23606,1.57416 0.265438,4.749341 0.864048,5.470621 0.587992,0.708488 0.712158,0.23086 0.323341,-1.243802 z M 86.325021,52.56004 c 0.07614,-1.540022 0.06725,-2.72804 -0.01975,-2.64004 -0.301327,0.304779 -0.862735,4.754254 -0.664909,5.269779 0.357518,0.931678 0.543998,0.215424 0.684663,-2.629739 z m -7.892343,1.429341 c 0.943728,-0.634131 1.100203,-0.929951 1.184855,-2.24 0.100345,-1.55289 -0.358406,-2.069827 -0.700529,-0.789381 -0.105808,0.396 -0.689968,1.285805 -1.298135,1.977345 -1.006711,1.14472 -1.195411,1.782655 -0.527306,1.782655 0.139586,0 0.743087,-0.328778 1.341115,-0.730619 z M 17.92,51.36 c 0.241205,-0.290635 0.266988,-0.48 0.06535,-0.48 -0.587828,0 -1.345354,0.379641 -1.345354,0.674236 0,0.45786 0.845259,0.329594 1.28,-0.194236 z m 1.147907,-2.149171 c 1.040651,-0.742044 2.515123,-1.822044 3.276604,-2.4 C 23.105992,46.232873 23.984386,45.76 24.296499,45.76 c 0.312112,0 1.133507,-0.410031 1.825323,-0.91118 1.133303,-0.82096 1.304072,-0.861695 1.724702,-0.411409 0.25677,0.274873 0.421803,0.765699 0.36674,1.090723 -0.08655,0.510888 0.08732,0.577467 1.28331,0.49141 1.51232,-0.108818 1.627595,-0.385221 1.138371,-2.729544 -0.211045,-1.011314 -0.197046,-1.02642 0.771637,-0.832684 0.898366,0.179674 0.967076,0.13586 0.768436,-0.49 -0.314088,-0.989603 -0.004,-0.854063 1.268529,0.554472 1.301367,1.440458 4.856962,3.39565 6.73081,3.701216 C 41.54299,46.446186 43.2,46.011364 43.2,45.429035 43.2,45.238292 43.056,45.171226 42.88,45.28 c -0.176,0.108774 -0.32,0.06088 -0.32,-0.106424 0,-0.167307 0.348785,-0.391734 0.775078,-0.498727 1.1189,-0.280826 3.709658,-2.754936 4.815763,-4.598935 0.522962,-0.871836 1.238073,-1.713577 1.589136,-1.870535 0.361827,-0.161771 0.88329,-0.978396 1.203926,-1.885379 0.311097,-0.88 1.05534,-2.554434 1.653874,-3.720964 0.671888,-1.309495 0.989297,-2.281065 0.829623,-2.539424 -0.20643,-0.33401 -0.354981,-0.338488 -0.736101,-0.02219 -0.262614,0.21795 -1.749589,1.063533 -3.304389,1.879074 -2.788103,1.462446 -2.876475,1.484737 -6.437568,1.623826 -2.803661,0.109505 -4.126806,0.01026 -5.92,-0.444047 C 35.633755,32.742707 33.643757,32.51905 32,32.531028 c -3.194945,0.02328 -9.466261,1.157867 -11.52,2.084159 -3.148733,1.420165 -5.693995,2.132766 -6.99467,1.958309 -0.99643,-0.133649 -1.608814,0.01023 -2.74401,0.644703 C 9.9375942,37.66741 9.28,37.90401 9.28,37.743977 c 0,-0.585391 2.631288,-1.610477 4.84858,-1.88889 2.238043,-0.281018 6.99142,-2.061165 6.99142,-2.618297 0,-0.409839 -0.571664,-0.345851 -3.379732,0.378303 -3.17918,0.819859 -4.783795,1.412947 -7.8274156,2.893122 -2.7736238,1.34887 -3.6080114,2.096491 -2.6688921,2.391358 0.3278219,0.10293 0.8460858,0.320634 1.1516977,0.483786 0.3056119,0.163153 0.7736119,0.296641 1.04,0.296641 0.2663881,0 0.448342,0.136565 0.404342,0.303477 -0.1289462,0.489152 1.016052,2.032599 2.137737,2.881649 1.446513,1.094926 2.552698,2.750213 3.217654,4.814874 0.536521,1.665876 1.279376,2.88 1.762112,2.88 0.120071,0 1.069752,-0.607127 2.110404,-1.349171 z M 10.24,39.234236 c 0,-0.06917 0.223479,-0.21152 0.49662,-0.316334 0.284776,-0.109279 0.413223,-0.05563 0.301115,0.125763 C 10.849812,39.34773 10.24,39.493409 10.24,39.234236 Z M 78.4,48.621115 C 78.4,47.927502 78.530519,47.36 78.690042,47.36 c 0.159523,0 0.214728,-0.288 0.122678,-0.64 -0.261247,-0.999009 -0.629913,-0.755356 -0.847328,0.56 -0.298567,1.806325 -0.248704,3.024539 0.114608,2.8 0.176,-0.108774 0.32,-0.765272 0.32,-1.458885 z M 24.88015,47.76 c 0.07812,-0.234619 -0.142452,-0.4 -0.533483,-0.4 -0.393068,0 -0.666667,0.20662 -0.666667,0.503464 0,0.58812 0.998542,0.502037 1.20015,-0.103464 z M 26.56,47.04 c 0,-0.176 -0.144,-0.32 -0.32,-0.32 -0.176,0 -0.32,0.144 -0.32,0.32 0,0.176 0.144,0.32 0.32,0.32 0.176,0 0.32,-0.144 0.32,-0.32 z m 1.984,-0.384 c -0.298667,-0.298667 -0.469333,-0.298667 -0.768,0 -0.298667,0.298667 -0.213333,0.384 0.384,0.384 0.597333,0 0.682667,-0.08533 0.384,-0.384 z m 9.216,0.125583 c 0,-0.142129 -0.578802,-0.513783 -1.286226,-0.825898 -0.707425,-0.312115 -1.69544,-0.911812 -2.19559,-1.332661 -0.991725,-0.834481 -1.48163,-0.726351 -0.977439,0.215738 0.327632,0.612186 1.764705,1.472592 3.177183,1.902249 1.098183,0.334052 1.282072,0.339871 1.282072,0.04057 z m 9.80037,-2.116818 c 0.734575,-0.63499 1.098144,-1.175923 0.950702,-1.41449 -0.268144,-0.433865 -2.530048,1.178813 -3.070957,2.18951 -0.476979,0.891244 0.683307,0.467123 2.120255,-0.77502 z M 9.5201495,41.2 C 9.4468983,40.98 9.1474033,40.753539 8.854605,40.696752 c -0.3712401,-0.072 -0.473914,0.04906 -0.3392464,0.4 C 8.7423642,41.688319 9.7160533,41.788371 9.5201495,41.2 Z M 51.23415,39.500349 c 0.609172,-1.730711 0.78758,-3.33868 0.315588,-2.844349 -0.159644,0.1672 -0.436705,0.808 -0.61569,1.424 -0.178985,0.616 -0.473057,1.597564 -0.653495,2.181252 -0.537651,1.739226 0.312328,1.061003 0.953597,-0.760903 z M 8,40.32 C 8,40.144 7.784,40 7.52,40 c -0.264,0 -0.48,0.144 -0.48,0.32 0,0.176 0.216,0.32 0.48,0.32 C 7.784,40.64 8,40.496 8,40.32 Z M 75.68,38.4 c -0.108774,-0.176 -0.341771,-0.32 -0.517771,-0.32 -0.176,0 -0.231003,0.144 -0.122229,0.32 0.108774,0.176 0.341771,0.32 0.517771,0.32 0.176,0 0.231003,-0.144 0.122229,-0.32 z m 17.085516,-0.985103 c 1.809262,-1.337646 1.100356,-1.582605 -1.165516,-0.40274 -2.695804,1.403736 -2.795017,1.516051 -1.154484,1.306946 0.729033,-0.09292 1.773033,-0.499817 2.32,-0.904206 z M 66.138597,32.9 c -0.102153,-0.255274 -0.177979,-0.179448 -0.193334,0.193333 -0.01389,0.337334 0.06174,0.526334 0.168071,0.42 C 66.219667,33.407 66.231035,33.131 66.138597,32.9 Z M 47.23074,32.183275 c 1.176919,-0.427198 2.366326,-1.003198 2.643128,-1.28 0.4577,-0.4577 0.431865,-0.502329 -0.285296,-0.492828 -0.433715,0.0057 -1.580572,0.289658 -2.548572,0.630917 -2.920985,1.029764 -7.100927,1.446969 -9.857106,0.983849 -2.634105,-0.442607 -3.441316,-0.261251 -1.295195,0.290992 0.765765,0.197049 1.536301,0.411145 1.712301,0.475769 0.176,0.06462 1.93345,0.128868 3.905444,0.142763 3.035574,0.02139 3.913614,-0.09386 5.725296,-0.751462 z m 20.787244,-1.711958 c -0.267064,-0.267064 -0.817783,0.297128 -0.807807,0.827568 0.0089,0.475088 0.0671,0.465872 0.476694,-0.07552 0.256584,-0.339152 0.405585,-0.677571 0.331113,-0.752043 z M 52.754156,29.143388 c 0.664762,-0.339136 1.399545,-0.846616 1.632852,-1.127733 0.766455,-0.923522 0.0044,-0.975226 -1.685986,-0.114389 -0.913562,0.465239 -1.987113,0.940147 -2.385669,1.05535 -0.398555,0.115204 -0.642057,0.343094 -0.541114,0.506423 0.301195,0.487343 1.690118,0.338355 2.979917,-0.319651 z M 78.321514,24.56 c -0.07809,-0.236975 -0.838878,-0.440076 -1.866667,-0.498331 -2.021316,-0.114567 -1.861126,0.459179 0.185153,0.663154 0.704,0.07017 1.4,0.151798 1.546667,0.181384 C 78.333334,24.935793 78.394015,24.78 78.321514,24.56 Z M 74.4,24 c -0.108774,-0.176 -0.485771,-0.32 -0.837771,-0.32 -0.352,0 -0.551003,0.144 -0.442229,0.32 0.108774,0.176 0.485771,0.32 0.837771,0.32 0.352,0 0.551003,-0.144 0.442229,-0.32 z m 91.52,86.49811 c -2.39719,-1.00267 -2.29742,-0.94294 -4.3073,-2.57874 -0.91947,-0.74835 -1.77194,-1.29873 -1.89436,-1.22306 -0.12243,0.0757 -0.79314,-0.36649 -1.49047,-0.98256 -0.69733,-0.61607 -1.05187,-1.01579 -0.78787,-0.88826 0.264,0.12752 0.732,0.44827 1.04,0.71278 0.308,0.26451 0.56,0.34018 0.56,0.16815 0,-0.17202 -0.96655,-1.16634 -2.14789,-2.20959 C 155.71077,102.45357 154.85527,101.78 154.991,102 c 0.13572,0.22 0.10602,0.4 -0.066,0.4 -0.74581,0 -3.663,-5.854797 -5.95372,-11.949112 C 148.03458,87.9589 146.76393,84.696 146.14759,83.2 c -0.61633,-1.496 -1.36631,-3.8 -1.66661,-5.12 -0.3003,-1.32 -0.74392,-3.048 -0.98581,-3.84 -0.2419,-0.792 -0.43363,-1.728 -0.42607,-2.08 0.008,-0.352 -0.0862,-1.247167 -0.20837,-1.989259 -0.25578,-1.553771 0.19155,-3.618998 1.31667,-6.078766 0.67981,-1.486224 0.8889,-1.691975 1.71938,-1.691975 0.52,0 1.03445,-0.144 1.14322,-0.32 0.10877,-0.176 0.0368,-0.32 -0.16,-0.32 -0.19677,0 -0.26979,-0.142351 -0.16226,-0.316335 0.1121,-0.181395 -0.0163,-0.235042 -0.30112,-0.125763 -0.27314,0.104814 -0.49662,0.04796 -0.49662,-0.126344 0,-0.174302 0.27867,-0.389786 0.61926,-0.478853 0.42954,-0.112329 0.84618,0.137807 1.36,0.816517 1.49587,1.975909 1.69965,2.066558 5.00106,2.224633 1.70483,0.08163 3.24368,0.03917 3.41968,-0.09435 0.176,-0.133521 0.716,-0.166744 1.2,-0.07383 0.71481,0.137223 0.88,0.340253 0.88,1.081587 0,0.627086 -0.13292,0.861644 -0.42482,0.749634 -1.1832,-0.454037 -3.21187,1.123549 -5.17344,4.023104 -1.13698,1.680666 -1.18368,1.853758 -1.03593,3.84 0.0851,1.144 0.4966,2.907799 0.91446,3.919554 0.70372,1.703928 0.83611,1.839588 1.79572,1.84 0.85116,3.66e-4 1.16932,-0.21364 1.78335,-1.199554 1.43911,-2.310664 2.78066,-5.419713 2.78066,-6.444174 0,-0.568478 0.12498,-0.956356 0.27773,-0.861951 0.28276,0.174758 1.19697,-2.505422 2.10106,-6.15972 0.57937,-2.341746 0.60235,-2.614155 0.22059,-2.614155 -0.15434,0 -0.50607,0.828 -0.78161,1.84 -0.76736,2.81825 -1.86814,5.896298 -2.0453,5.71914 -0.17368,-0.173681 1.43909,-5.27583 2.65954,-8.413718 0.7741,-1.990284 1.0213,-3.819748 0.4701,-3.479088 -0.57936,0.358064 -0.67617,-0.453227 -0.19229,-1.611328 0.2696,-0.645241 0.49531,-1.623579 0.50158,-2.174086 0.006,-0.550506 0.21054,-1.834358 0.45394,-2.853004 0.33125,-1.386274 0.37344,-2.58886 0.16775,-4.781541 -0.15113,-1.611201 -0.20291,-3.045763 -0.11506,-3.187916 0.0879,-0.142152 -0.0373,-0.258459 -0.27811,-0.258459 -0.24082,0 -1.12486,0.795751 -1.96453,1.768335 -2.03964,2.362509 -4.29402,3.479214 -8.05845,3.991741 -2.45463,0.334199 -3.04778,0.324074 -3.84,-0.06554 -0.51532,-0.253437 -1.54894,-0.653435 -2.29694,-0.888883 -0.97501,-0.306906 -1.36,-0.600866 -1.36,-1.038434 0,-0.484674 -0.14825,-0.565136 -0.72,-0.390777 -0.69406,0.211657 -0.68956,0.186495 0.12479,-0.698436 0.46463,-0.504902 1.29452,-1.724991 1.84419,-2.711308 C 147.29416,40.579477 150.99222,36.8 151.8123,36.8 c 0.65182,0 0.66897,-0.07482 -0.4465,1.948874 -1.04294,1.892104 -1.22236,3.092761 -0.5034,3.368652 0.81463,0.312602 4.60466,-2.67697 4.7704,-3.762877 0.0365,-0.239057 0.43641,-0.802484 0.88872,-1.25206 0.59429,-0.590689 0.93617,-1.433881 1.2326,-3.04 0.22561,-1.222424 0.54021,-2.387343 0.69911,-2.588709 1.03344,-1.309656 0.49128,-6.356218 -0.92799,-8.637961 -0.88029,-1.415232 -0.89418,-1.422506 -2.48524,-1.302317 -0.92038,0.06953 -2.53635,0.56252 -3.80442,1.160639 -2.40702,1.135334 -2.37243,1.144552 -3.26845,-0.871098 -0.57712,-1.298267 -0.34148,-2.83515 0.76046,-4.959885 0.6432,-1.240205 1.14389,-1.711348 2.5947,-2.4416 2.2202,-1.117514 5.69567,-1.547158 7.4396,-0.9197 1.42047,0.511077 6.92382,5.140969 7.30614,6.146563 0.33628,0.884483 2.35381,3.071479 2.83347,3.071479 0.65929,0 2.06461,-2.258729 2.34297,-3.765788 0.27745,-1.502128 1.09915,-2.962085 1.79831,-3.195137 0.25435,-0.08478 0.29664,0.246174 0.14053,1.099823 -0.45319,2.478156 -0.10908,21.014471 0.41335,22.266439 0.12975,0.310935 0.16755,0.922935 0.084,1.36 -0.0836,0.437065 -0.0279,0.794663 0.12372,0.794663 0.15159,0 0.27783,0.54 0.28053,1.2 0.003,0.66 0.28179,2.298549 0.62019,3.64122 0.33839,1.342671 0.53752,2.73851 0.4425,3.101865 -0.14295,0.546662 2.12784,8.217355 3.09561,10.456915 0.15211,0.352 0.37795,1 0.50186,1.44 0.12391,0.44 0.56115,1.295814 0.97164,1.901809 0.79326,1.171081 0.77902,1.655183 -0.029,0.984609 -0.77161,-0.640381 -0.58814,0.207005 0.48359,2.233582 0.51192,0.968 1.23103,2.375403 1.59804,3.127563 0.367,0.75216 0.78768,1.293155 0.93482,1.202212 0.14715,-0.09094 0.36288,0.214482 0.4794,0.678723 0.27642,1.101342 0.63707,0.685498 1.26499,-1.458574 0.33517,-1.144454 0.40102,-1.857383 0.19454,-2.106173 -0.20522,-0.247274 -0.14407,-1.2988 0.17852,-3.069924 0.26986,-1.481605 0.57657,-3.176239 0.68158,-3.765853 0.10501,-0.589614 0.0544,-1.165614 -0.11243,-1.28 -0.18227,-0.124959 -0.21218,-1.35755 -0.0749,-3.087974 0.52578,-6.629048 0.19104,-14.464874 -0.80184,-18.770257 -0.25745,-1.116359 -0.84645,-3.757743 -1.30889,-5.869743 -0.46244,-2.112 -0.96205,-4.230116 -1.11023,-4.706924 -0.36298,-1.167954 0.81372,-8.049752 1.62891,-9.526498 0.83327,-1.509502 1.89431,-3.03002 3.49279,-5.005321 1.44816,-1.78955 2.39923,-2.222214 5.62623,-2.559502 1.5631,-0.1633756 2.14889,-0.072524 3.43729,0.533096 2.06364,0.970027 2.85049,2.230467 2.58768,4.145149 -0.10871,0.792 -0.41364,1.776028 -0.67762,2.186728 -0.7184,1.11772 -2.53484,1.758446 -4.36922,1.54119 -1.95681,-0.231754 -4.06095,0.821372 -4.06095,2.032514 0,0.297682 -0.2345,1.011307 -0.52111,1.585834 -0.68492,1.372953 -0.42144,4.033942 0.57819,5.839282 1.47688,2.667284 4.50322,3.318531 5.27271,1.134653 1.10888,-3.14708 1.42449,-3.971938 1.71256,-4.475859 0.39366,-0.688624 0.41783,-2.704656 0.0353,-2.941097 -0.15531,-0.09599 -0.64602,0.111513 -1.09047,0.461115 -0.85598,0.673315 -2.14714,0.858359 -2.14714,0.30772 0,-0.180356 0.35425,-0.462606 0.78722,-0.627222 0.43297,-0.164615 1.08983,-0.601906 1.45968,-0.971757 0.37779,-0.377793 0.97933,-0.628779 1.37278,-0.572779 0.63157,0.08989 0.73297,0.382413 1.03287,2.979678 0.19721,1.707886 0.55987,3.222167 0.89108,3.720738 0.80606,1.213341 1.20917,2.774997 0.75536,2.926266 -0.27413,0.09138 -0.2727,0.317175 0.006,0.897544 l 0.37199,0.775452 0.0216,-0.784 c 0.0274,-0.990418 0.52994,-0.528003 0.8521,0.784 0.2193,0.893128 0.19602,0.927273 -0.33427,0.490186 -0.51522,-0.42467 -0.55693,-0.409296 -0.43407,0.16 0.0747,0.346398 0.30306,0.595247 0.50735,0.552999 0.20429,-0.04225 0.53443,0.227734 0.73364,0.599961 0.29387,0.549094 0.24424,0.835259 -0.26303,1.516815 -0.52552,0.706083 -0.91344,0.855343 -2.43264,0.936008 -1.17537,0.06241 -1.80742,-0.02906 -1.80742,-0.261564 0,-0.216146 -0.26242,-0.274245 -0.66359,-0.146918 -1.18318,0.375527 -5.63098,-1.659586 -5.00191,-2.288652 0.0939,-0.09388 0.46155,-0.01502 0.81706,0.175239 0.3555,0.190259 0.76383,0.340161 0.9074,0.333114 0.14357,-0.007 -0.12491,-0.222382 -0.59664,-0.478523 -1.00485,-0.545628 -1.94751,-0.300844 -1.72997,0.449231 0.0833,0.287157 0.38157,1.335586 0.66286,2.329843 0.2813,0.994256 0.87144,2.553963 1.31143,3.466015 0.43998,0.912052 0.72096,1.907223 0.62439,2.21149 -0.0966,0.304267 0.19453,1.46406 0.64689,2.577319 0.45235,1.113258 0.88542,2.515842 0.96237,3.116852 0.0769,0.601011 0.35586,1.51036 0.61981,2.020775 0.26394,0.510415 0.4799,1.084766 0.4799,1.276335 0,0.432318 2.24865,5.485276 2.63605,5.923475 0.33213,0.375681 -1.4518,-4.556017 -2.1129,-5.841136 -0.7202,-1.399462 -1.46462,-3.278864 -1.29903,-3.278864 0.27407,0 2.41362,4.892026 3.66389,8.377391 1.62908,4.541358 4.26482,9.174966 6.84112,12.026619 0.62649,0.693455 1.03806,1.361849 0.91458,1.485321 -0.12347,0.123472 0.0248,0.128851 0.32938,0.01195 0.42503,-0.163098 0.50603,-0.08784 0.34818,0.323494 -0.13354,0.348003 0.0354,0.704933 0.48173,1.017524 0.37808,0.264818 0.62232,0.586814 0.54276,0.715545 -0.0796,0.128731 0.1373,0.410139 0.48191,0.625352 1.39284,0.869839 1.16697,-1.502211 -0.70043,-7.355966 -1.15074,-3.607249 -2.25828,-4.914275 -4.46297,-5.266819 -1.69805,-0.271529 -1.87732,-0.676491 -0.42047,-0.949798 1.11469,-0.209117 1.14703,-0.248246 0.56889,-0.688356 -0.56678,-0.431468 -0.52857,-0.454708 0.50702,-0.308369 0.616,0.08705 1.76464,0.400069 2.55254,0.695604 1.57063,0.589137 4.26983,0.539652 7.32935,-0.134373 1.26748,-0.27923 1.8164,-0.285074 2.08,-0.02215 0.47785,0.476629 0.68212,8.526595 0.23899,9.41863 -0.18261,0.367617 -0.53607,1.388395 -0.78545,2.268395 -0.41026,1.447675 -2.7413,7.188697 -3.43039,8.448551 -0.15385,0.281297 -0.73631,1.591449 -1.29433,2.911449 -1.95237,4.618272 -3.84326,8.039876 -6.04782,10.943598 -1.22242,1.610112 -2.61113,3.730484 -3.08602,4.711939 -0.47488,0.981455 -1.05545,2.166681 -1.29015,2.633836 -0.23469,0.467156 -0.42672,1.051633 -0.42672,1.298833 0,0.24721 -0.22775,0.72899 -0.50612,1.07063 -0.40315,0.49478 -0.47207,0.51185 -0.33877,0.0839 0.0921,-0.2955 0.26674,-1.0875 0.3882,-1.759992 L 200.08415,98.72 199.05347,100 c -0.56688,0.704 -1.68204,2.25977 -2.47814,3.45727 -0.79609,1.19751 -1.51846,2.10627 -1.60525,2.01947 -0.0868,-0.0868 0.32002,-0.82316 0.90402,-1.63638 0.78152,-1.08824 0.95638,-1.54375 0.66237,-1.72546 -0.291,-0.17985 -0.01,-0.81626 1.03624,-2.343695 0.78964,-1.153243 1.98282,-3.229545 2.6515,-4.614005 0.66869,-1.38446 1.31619,-2.593001 1.4389,-2.685646 0.12271,-0.09265 0.0994,-0.368625 -0.0518,-0.613288 -0.15655,-0.253307 -0.1424,-0.793429 0.0329,-1.254435 0.31729,-0.834543 0.064,-3.660332 -0.80764,-9.010395 -0.4442,-2.726515 -0.74168,-3.539133 -3.16039,-8.633436 -2.03542,-4.287003 -2.79759,-6.067542 -2.77771,-6.489124 0.0164,-0.348285 1.07383,1.76315 1.96771,3.929124 0.18158,0.44 0.39225,0.634199 0.46815,0.431553 0.21265,-0.567726 -1.70763,-5.287586 -2.65565,-6.527351 -0.4644,-0.607311 -0.7576,-0.852202 -0.65155,-0.544202 0.1297,0.376666 0.0291,0.56 -0.30716,0.56 -0.41451,0 -0.46318,-0.267588 -0.28471,-1.565218 0.16908,-1.229405 0.0751,-1.864466 -0.43829,-2.96 -0.35946,-0.76713 -0.66052,-1.250782 -0.66904,-1.074782 -0.009,0.176 -0.22918,2.624 -0.49037,5.44 -0.57232,6.170184 -0.57187,6.335821 0.0137,5.12 0.25432,-0.528 0.40079,-0.672 0.3255,-0.32 -0.0753,0.352 -0.43142,1.936 -0.7914,3.52 -0.35999,1.584 -0.79238,4.104 -0.96088,5.6 l -0.30635,2.72 0.11851,-2.56 c 0.0972,-2.100359 0.0614,-2.358907 -0.19977,-1.44 -1.10884,3.901919 -1.49935,7.508559 -1.00478,9.28 l 0.22335,0.8 0.23075,-0.96 c 0.13207,-0.549485 0.15815,-0.192224 0.061,0.835462 -0.0934,0.987504 -0.29575,2.283504 -0.44973,2.88 -0.25251,0.978206 -0.26519,0.943356 -0.12928,-0.355462 0.18772,-1.794025 -0.35114,-2.905721 -0.60971,-1.25786 -0.32825,2.091978 -0.41126,6.37786 -0.12353,6.37786 0.31278,0 -0.009,4.853504 -0.39154,5.90814 -0.22648,0.6242 -0.22996,0.6242 -0.55313,0 -0.17887,-0.345475 -0.51007,-1.63614 -0.73599,-2.86814 -0.49534,-2.701139 -2.74835,-9.359818 -3.38103,-9.992499 -0.24927,-0.249269 -0.45411,-0.62293 -0.45519,-0.830358 -0.001,-0.207429 -0.23254,-0.809143 -0.51435,-1.337143 -0.2818,-0.528 -0.7854,-1.739954 -1.1191,-2.693232 -0.59715,-1.705858 -3.36698,-7.102093 -4.44856,-8.666768 -0.30415,-0.44 -1.22668,-2.096 -2.05006,-3.68 -0.82338,-1.584 -1.75436,-3.140306 -2.06885,-3.458458 -0.55016,-0.556567 -0.56943,-0.532348 -0.50906,0.64 0.0345,0.670152 0.0828,1.622956 0.10735,2.117343 0.0245,0.494387 0.18369,0.812922 0.35369,0.707855 0.1927,-0.119095 0.24646,0.566677 0.14276,1.821115 -0.0915,1.10668 -0.048,3.708724 0.0967,5.78232 0.14469,2.073597 0.15329,3.879957 0.0191,4.014133 -0.13417,0.134176 -0.27879,1.929597 -0.32137,3.989825 C 172.36371,87.91436 172.1986,89.6 172.03934,89.6 c -0.16347,0 -0.21526,1.191029 -0.11892,2.735178 0.1231,1.973119 0.0688,2.701273 -0.19489,2.613483 -0.20105,-0.06693 -0.41554,-0.397763 -0.47666,-0.735178 -0.14032,-0.77477 -1.47495,-2.225863 -2.92888,-3.184471 -0.616,-0.406143 -1.49839,-1.073821 -1.96087,-1.483727 -1.13844,-1.009025 -4.60863,-2.754008 -6.28879,-3.162308 -0.75331,-0.183065 -1.29205,-0.458407 -1.1972,-0.611872 0.17791,-0.287876 -0.51069,-0.467706 -3.0873,-0.806249 -1.42122,-0.186737 -1.48518,-0.162004 -1.3103,0.506728 0.15623,0.597409 0.23649,0.631042 0.53416,0.223836 0.26479,-0.362229 0.34438,0.09433 0.32605,1.870273 -0.0134,1.292216 0.0398,2.285427 0.11809,2.207134 0.30864,-0.308638 0.95486,0.729271 1.58947,2.552887 0.36639,1.052857 0.6807,1.626286 0.69846,1.274286 0.022,-0.436732 0.21934,-0.22818 0.62124,0.656635 0.32393,0.71315 1.00308,1.93715 1.50923,2.72 1.06097,1.640995 1.79942,3.218375 1.60002,3.417775 -0.0757,0.0757 -0.36986,-0.34213 -0.65377,-0.928422 C 160.53457,98.879695 159.87402,97.896 159.3506,97.28 l -0.95168,-1.12 0.51756,1.28 c 0.86776,2.146128 2.74304,5.7315 3.17768,6.07545 0.22558,0.1785 0.68743,0.79243 1.02634,1.36429 0.61196,1.03256 1.87081,2.51208 4.35658,5.12026 1.47618,1.54887 1.18092,1.64333 -1.55708,0.49811 z m -3.64053,-5.03206 c -2.06536,-2.52667 -5.50729,-8.617139 -6.57692,-11.637828 C 155.47113,93.1747 154.984,91.992 154.62004,91.2 c -0.56626,-1.232188 -0.95509,-2.419236 -1.57228,-4.8 -0.0684,-0.264 -0.19396,-0.969618 -0.27893,-1.56804 l -0.15449,-1.08804 2.48554,0.210105 c 2.6823,0.226737 9.03855,1.875493 10.34012,2.682136 0.44,0.272689 1.5007,1.195107 2.35712,2.049818 0.85641,0.854712 1.69018,1.554021 1.85282,1.554021 0.16263,0 0.27114,-0.612 0.24113,-1.36 -0.0601,-1.498591 0.3244,-8.561815 0.52197,-9.587729 0.56752,-2.946891 0.80003,-8.870587 0.47693,-12.151018 -0.31865,-3.235341 -0.44498,-7.250707 -0.35866,-11.400138 0.0179,-0.859175 0.153,-1.302058 0.35851,-1.175047 0.1914,0.118291 0.2435,0.663953 0.12415,1.300167 -0.13216,0.704459 -0.0322,1.467604 0.27969,2.135046 1.3051,2.793031 2.56632,5.990799 3.94357,9.998719 0.76572,2.228335 2.13596,4.480019 3.54456,5.82472 0.40602,0.387597 0.73821,0.804766 0.73821,0.927043 0,0.122277 0.47273,0.813153 1.05051,1.53528 C 182.07741,78.170413 182.82122,80 182.08,80 c -0.176,0 -0.32,-0.216 -0.32,-0.48 0,-0.264 -0.14693,-0.48 -0.3265,-0.48 -0.17958,0 -0.0285,0.54 0.33562,1.2 0.36417,0.66 0.86129,1.56 1.1047,2 0.48257,0.872283 2.4273,6.158067 2.53457,6.888948 0.096,0.654415 0.4141,0.889087 0.84448,0.623095 0.27847,-0.172103 0.26331,-0.303105 -0.0587,-0.507143 -0.31946,-0.202424 -0.32849,-0.276394 -0.0342,-0.28 0.22807,-0.0028 0.38914,-0.383137 0.37474,-0.8849 -0.0139,-0.484 -0.0979,-0.7 -0.18667,-0.48 -0.34911,0.86519 -0.81522,0.373364 -0.60654,-0.64 0.11779,-0.572 0.27039,-1.472 0.3391,-2 0.0687,-0.528 0.63508,-2.289094 1.2586,-3.913541 0.62351,-1.624448 1.22668,-3.744948 1.34036,-4.712222 0.11368,-0.967273 0.29528,-1.703924 0.40355,-1.637002 0.10828,0.06692 0.16186,-0.548578 0.11908,-1.367779 -0.0579,-1.108852 -0.003,-1.325915 0.2144,-0.849456 0.19856,0.43494 0.23483,0.101718 0.11321,-1.04 -0.0984,-0.924 -0.0509,-1.681398 0.1056,-1.683106 0.15651,-0.0017 0.30931,-1.333708 0.33955,-2.96 0.0355,-1.909803 -0.0382,-2.673599 -0.2081,-2.156894 -0.42394,1.289155 -0.36245,0.346436 0.15318,-2.34815 0.29112,-1.521392 0.48377,-4.416967 0.48967,-7.36 0.009,-4.697362 0.28206,-5.566502 0.78651,-2.507304 0.12557,0.761501 0.84811,2.561501 1.60565,4 1.57203,2.985143 1.99304,3.98123 4.48676,10.615454 1.91888,5.10494 3.35935,9.290697 3.46889,10.08 0.0652,0.469771 0.9322,3.368672 2.15337,7.2 0.33658,1.056 0.70383,2.82 0.81611,3.92 0.13994,1.370914 0.34079,2 0.63857,2 0.23892,0 0.43441,-0.157807 0.43441,-0.350681 0,-0.192875 0.78514,-1.542909 1.74476,-3.000075 2.13892,-3.247909 2.53755,-4.120712 4.82723,-10.569244 1.71422,-4.827824 2.41867,-7.641456 3.3249,-13.28 0.74215,-4.617643 0.74726,-4.260886 -0.0574,-4.010466 -1.79182,0.557598 -4.39283,0.849616 -6.07944,0.682545 -1.96082,-0.194235 -2.24673,0.04119 -1.25474,1.033184 0.63639,0.636385 1.42057,2.786341 2.29597,6.294737 0.35722,1.431658 0.70427,2.205975 0.9617,2.145714 0.29259,-0.06849 0.34496,0.194161 0.19142,0.96 -0.11625,0.579857 -0.29794,1.594286 -0.40376,2.254286 -0.10581,0.66 -0.30123,1.2 -0.43425,1.2 -0.20706,0 -2.1193,-2.063509 -2.81715,-3.04 -0.12578,-0.176 -0.74878,-0.968 -1.38445,-1.76 -1.50591,-1.876257 -4.65467,-6.555744 -5.42536,-8.062839 -0.33268,-0.650562 -0.80238,-1.298562 -1.04377,-1.44 C 198.78264,59.025896 197.61464,56.96 197.92425,56.96 c 0.0994,0 -0.10795,-0.309808 -0.46072,-0.688462 -0.35277,-0.378654 -0.56588,-0.810654 -0.47358,-0.96 0.0923,-0.149346 0.025,-0.271538 -0.1495,-0.271538 -0.31823,0 -0.86277,-1.229844 -0.74385,-1.68 0.0349,-0.132 -0.1166,-0.242205 -0.3366,-0.2449 -0.26667,-0.0033 -0.24,-0.1083 0.08,-0.3151 0.39815,-0.257303 0.37086,-0.311871 -0.16,-0.32 -0.53086,-0.0081 -0.55815,-0.0627 -0.16,-0.32 0.39815,-0.257303 0.37086,-0.311871 -0.16,-0.32 -0.53086,-0.0081 -0.55815,-0.0627 -0.16,-0.32 0.39815,-0.257303 0.37086,-0.311871 -0.16,-0.32 -0.46092,-0.0071 -0.52349,-0.0837 -0.22363,-0.273905 0.33274,-0.211051 0.33849,-0.435058 0.0286,-1.1151 C 194.63175,49.342948 194.26439,48.96 194.02864,48.96 193.79289,48.96 193.6,48.807502 193.6,48.621115 c 0,-0.186387 0.18,-0.247709 0.4,-0.13627 0.22,0.111439 0.13358,-0.01448 -0.19204,-0.279823 -0.32563,-0.265342 -0.49713,-0.636021 -0.38112,-0.823731 0.11601,-0.18771 0.043,-0.341291 -0.16219,-0.341291 -0.20522,0 -0.29024,-0.216 -0.18893,-0.48 0.10131,-0.264 0.0677,-0.48 -0.0748,-0.48 -0.14244,0 -0.72582,-1.98 -1.29638,-4.4 -0.57057,-2.42 -1.32139,-5.38433 -1.6685,-6.5874 -0.34711,-1.20307 -0.56992,-2.35507 -0.49514,-2.56 0.0748,-0.20493 -0.0604,-0.855898 -0.30034,-1.446595 -0.23997,-0.590697 -0.35229,-1.209936 -0.24961,-1.376087 0.10269,-0.16615 -0.0428,-0.7857 -0.32327,-1.376777 -0.28048,-0.591078 -0.75313,-2.001804 -1.05033,-3.134947 l -0.54037,-2.060261 0.85047,-1.728967 c 0.46776,-0.950931 1.43332,-2.448966 2.14569,-3.328966 0.71237,-0.88 1.73347,-2.14 2.26911,-2.8 0.53564,-0.66 1.24198,-1.2 1.56965,-1.2 0.83617,0 1.6081,0.332717 1.6081,0.693122 0,0.167557 -0.13321,0.222321 -0.29602,0.121698 -0.56099,-0.346708 -1.94398,0.544383 -1.94398,1.252545 0,2.1435 3.29809,1.871543 4.44255,-0.366328 0.71186,-1.39198 0.3099,-2.313308 -1.6857,-3.863793 -0.95291,-0.740358 -2.56879,-0.960423 -2.91685,-0.397244 -0.10877,0.176 -0.50381,0.32 -0.87785,0.32 -0.37405,0 -1.3182,0.308908 -2.09813,0.686461 -2.38965,1.156814 -5.19021,6.304853 -5.89348,10.833539 -0.41228,2.654835 -0.4037,2.800543 0.36717,6.24 1.64105,7.321947 1.92979,8.898383 1.75638,9.589323 -0.10227,0.407471 -0.0303,0.837065 0.15998,0.954652 0.70393,0.435049 0.31749,22.951996 -0.47532,27.696025 -0.0735,0.44 -0.20368,1.265081 -0.28922,1.833514 -0.0855,0.568432 -0.36842,1.543046 -0.62862,2.165808 -0.26021,0.622762 -0.44336,1.186563 -0.40701,1.25289 0.0364,0.06633 -0.17564,0.387714 -0.4711,0.714192 -0.29545,0.326478 -0.54201,0.704645 -0.54789,0.840372 -0.006,0.135727 -0.15576,0.495727 -0.33307,0.8 -0.43102,0.739665 -0.45448,-0.01826 -0.0448,-1.446807 0.24227,-0.844746 0.19339,-1.109973 -0.26495,-1.437888 -0.30911,-0.221144 -0.96295,-1.090303 -1.45298,-1.931464 -0.6944,-1.191993 -0.98428,-1.451928 -1.31401,-1.178279 -0.33042,0.27423 -0.49315,0.118638 -0.74321,-0.710616 -0.44703,-1.482464 -2.73469,-7.48747 -3.5131,-9.221722 -0.71206,-1.586445 -2.28252,-9.199562 -2.21135,-10.72 0.0247,-0.528 -0.25776,-2.688 -0.62772,-4.8 -0.36996,-2.112 -0.83727,-5.136 -1.03847,-6.72 -0.2012,-1.584 -0.58605,-3.953889 -0.85522,-5.266421 -0.53501,-2.608875 -0.60496,-4.342213 -0.2727,-6.75802 0.22749,-1.654062 -0.0399,-1.973301 -0.91765,-1.095559 -0.87689,0.876892 -1.61764,0.481425 -3.47822,-1.856927 -1.98048,-2.489034 -2.9622,-3.567763 -4.09481,-4.499462 -1.10308,-0.907432 -3.6759,-2.123611 -4.49246,-2.123611 -0.39977,0 -0.63211,-0.09475 -0.5163,-0.210557 C 157.877,15.136333 157.10451,14.4 156.42193,14.4 c -0.34083,0 -0.5307,0.144 -0.42193,0.32 0.25585,0.413971 0.0536,0.40358 -0.93795,-0.04818 -0.67869,-0.309231 -1.03334,-0.248666 -2.21515,0.378283 -1.81825,0.964579 -3.55804,3.693282 -3.24975,5.096938 0.36011,1.639565 0.86606,1.75644 2.90153,0.670255 1.97868,-1.055887 4.39252,-1.317826 5.31996,-0.577298 0.74566,0.595388 1.85014,5.327433 2.03495,8.718603 0.14827,2.72055 0.0809,3.202373 -0.77537,5.548719 -1.5151,4.15147 -3.33185,6.320751 -6.74034,8.048291 l -1.42213,0.72078 -0.52595,-0.64953 c -0.51755,-0.639141 -0.54855,-0.624935 -1.93788,0.88812 -0.77656,0.845708 -1.4267,1.808254 -1.44476,2.138991 -0.0304,0.556208 0.14976,0.585262 2.4,0.387112 1.39866,-0.123161 3.98926,-0.719788 6.09419,-1.403519 3.33404,-1.08297 3.82752,-1.347779 5.52,-2.962139 1.02226,-0.975067 1.85865,-2.031774 1.85865,-2.348238 0,-0.316463 0.23954,-0.709443 0.53232,-0.873287 0.38492,-0.215417 0.56469,-0.852482 0.64925,-2.300857 0.0643,-1.101626 0.26284,-2.234727 0.44115,-2.518001 0.23373,-0.371307 0.26791,-0.135273 0.12248,0.845757 -0.17689,1.193262 -0.13472,1.33509 0.34252,1.151958 0.47519,-0.18235 0.51051,-0.07081 0.27843,0.879198 -0.14619,0.598423 -0.28106,1.736042 -0.29971,2.528042 -0.0187,0.792 -0.1636,1.8 -0.32212,2.24 -0.28083,0.779493 -0.29303,0.77129 -0.47616,-0.32 l -0.18794,-1.12 -0.40148,1.393541 c -0.44832,1.556153 -0.19278,3.01218 0.303,1.726459 0.1527,-0.396 0.33037,-0.72 0.39481,-0.72 0.25606,0 -0.12034,9.259764 -0.46176,11.36 -0.44752,2.752851 -0.54732,3.84862 -0.75777,8.32 -0.2217,4.710266 -0.67955,7.731127 -1.4065,9.28 -1.82367,3.885583 -2.39583,4.939612 -2.7565,5.078017 -0.21951,0.08423 -0.87031,0.992139 -1.44622,2.017567 -0.57592,1.025429 -1.25006,2.102016 -1.4981,2.392416 -0.53732,0.629097 -2.6497,0.727953 -2.6497,0.124001 0,-0.222199 -0.44501,-0.963799 -0.98891,-1.648 -1.35077,-1.699191 -1.92761,-3.185908 -1.97744,-5.096508 -0.0347,-1.331505 0.19219,-2.046783 1.30215,-4.104571 0.73931,-1.370635 1.3442,-2.562059 1.3442,-2.647608 0,-0.08555 -0.252,-0.118895 -0.56,-0.0741 -0.7661,0.111414 -2,-0.333814 -2,-0.72166 0,-0.174527 0.16743,-0.213844 0.37207,-0.08737 0.20463,0.126473 0.81584,0.320712 1.35824,0.431644 0.77341,0.158179 1.1764,0.03219 1.86793,-0.58396 1.17536,-1.047249 1.11132,-1.360234 -0.24767,-1.210475 -0.62118,0.06845 -1.79707,-2.67e-4 -2.61308,-0.152715 -1.59924,-0.298769 -2.036,-0.167188 -1.43616,0.43266 0.55131,0.551309 0.46449,1.040256 -0.10133,0.570667 -0.264,-0.219101 -0.48,-0.551452 -0.48,-0.738558 0,-0.187106 -0.3131,-0.673474 -0.69578,-1.080818 -0.72186,-0.768384 -1.86422,-1.005156 -1.86422,-0.386388 0,0.19483 -0.20712,0.274758 -0.46026,0.177618 -0.31951,-0.122607 -0.62663,0.258999 -1.00427,1.247842 -0.2992,0.783454 -0.81209,1.73356 -1.13974,2.111346 -0.63745,0.734994 -0.80355,2.342745 -0.27573,2.668958 0.176,0.108774 0.33717,0.0093 0.35814,-0.221115 0.0716,-0.786695 0.89193,3.737542 0.91039,5.021115 0.0262,1.822744 0.65588,3.724908 3.33682,10.08 1.29933,3.08 2.88977,6.956824 3.53432,8.615165 1.58856,4.087124 4.05019,7.743482 7.78065,11.556912 2.45731,2.51195 3.30669,3.18894 4.00047,3.18849 0.85653,-5.5e-4 0.82015,-0.0747 -1.32132,-2.69452 z M 185.28,84.64 c -0.22616,-0.272506 -0.3392,-0.567466 -0.2512,-0.655466 0.088,-0.088 0.34504,0.06296 0.5712,0.335466 0.22616,0.272506 0.3392,0.567466 0.2512,0.655466 -0.088,0.088 -0.34504,-0.06296 -0.5712,-0.335466 z m 22.24227,-11.356335 c -0.11211,-0.181395 0.0163,-0.235042 0.30111,-0.125763 0.55437,0.212733 0.6558,0.442098 0.19551,0.442098 -0.16562,0 -0.3891,-0.142351 -0.49662,-0.316335 z m -0.84309,-1.176055 c -0.39823,-0.482753 -0.37205,-0.496621 0.28082,-0.148742 0.74463,0.396772 0.92798,0.681132 0.43918,0.681132 -0.15445,0 -0.47845,-0.239576 -0.72,-0.53239 z m -1.10958,-1.434173 c -0.60537,-0.681795 -0.60472,-0.684006 0.0926,-0.318279 0.77783,0.407964 1.25678,1.004842 0.8063,1.004842 -0.15911,0 -0.56361,-0.308953 -0.89888,-0.686563 z M 188.53053,69.12 c 0,-0.44 0.0726,-0.62 0.1614,-0.4 0.0888,0.22 0.0888,0.58 0,0.8 -0.0888,0.22 -0.1614,0.04 -0.1614,-0.4 z m 16.09063,0.170177 c -0.34164,-0.258403 -0.45879,-0.474403 -0.26034,-0.48 0.19845,-0.0056 0.54008,0.205823 0.75918,0.469823 0.50585,0.609516 0.29914,0.613734 -0.49884,0.01018 z M 188.85439,67.36 c -0.005,-0.352 0.11435,-0.928 0.26561,-1.28 0.3504,-0.815432 0.3504,0.02587 0,1.12 -0.20596,0.643114 -0.25805,0.674491 -0.26561,0.16 z m 14.46762,0.08 c -0.12968,-0.22 -0.44274,-0.724 -0.69569,-1.12 -0.29886,-0.467855 -0.33497,-0.72 -0.10312,-0.72 0.19624,0 0.3568,0.188847 0.3568,0.41966 0,0.230814 0.29361,0.734814 0.65247,1.12 0.35885,0.385187 0.51135,0.70034 0.33888,0.70034 -0.17247,0 -0.41967,-0.18 -0.54934,-0.4 z m -2.26737,-3.52 c -0.85851,-1.33683 -0.93451,-1.500043 -1.01464,-2.178885 -0.022,-0.186387 -0.20625,-0.236138 -0.40944,-0.110558 -0.22649,0.13998 -0.28268,0.08794 -0.1452,-0.134501 0.12333,-0.199556 0.0619,-0.666138 -0.13649,-1.036849 -0.1984,-0.370712 -0.28308,-0.751662 -0.18819,-0.846556 0.0949,-0.0949 0.4102,0.421438 0.70068,1.147406 0.29047,0.725969 0.66499,1.319943 0.83227,1.319943 0.16728,0 0.21514,0.144 0.10637,0.32 -0.10877,0.176 -0.0368,0.32 0.16,0.32 0.19677,0 0.26877,0.144 0.16,0.32 -0.10877,0.176 -0.0368,0.32 0.16,0.32 0.19677,0 0.26877,0.144 0.16,0.32 -0.10877,0.176 -0.0621,0.32 0.10379,0.32 0.16586,0 0.37688,0.288 0.46893,0.64 0.25264,0.966082 0.005,0.780281 -0.95808,-0.72 z m -3.39146,-4.699219 c -0.78004,-1.320494 -0.66101,-1.661637 0.14213,-0.407366 0.37099,0.579378 0.61299,1.114948 0.53779,1.190155 -0.0752,0.07521 -0.38117,-0.277048 -0.67992,-0.782789 z m -1.44726,-2.425839 c -0.21993,-0.482706 -0.33416,-0.943371 -0.25383,-1.023701 0.21725,-0.217249 0.89758,1.169744 0.76657,1.562794 -0.0621,0.186205 -0.2928,-0.05639 -0.51274,-0.539093 z m -1.73736,-4.079751 c -0.63169,-1.454422 -1.23697,-3.074331 -1.34508,-3.599798 -0.15534,-0.755056 -0.084,-0.686989 0.34012,0.324607 0.29518,0.704 0.95931,2.265061 1.47585,3.469024 0.51654,1.203963 0.88032,2.247872 0.8084,2.319797 -0.0719,0.07193 -0.64761,-1.059208 -1.27929,-2.51363 z M 193.92,49.581115 c 0,-0.186387 0.144,-0.249889 0.32,-0.141115 0.176,0.108774 0.32,0.261272 0.32,0.338885 0,0.07761 -0.144,0.141115 -0.32,0.141115 -0.176,0 -0.32,-0.152498 -0.32,-0.338885 z M 162.58249,38 c 0.0124,-0.22 0.14625,-0.688 0.29751,-1.04 0.23047,-0.536325 0.27866,-0.471529 0.29751,0.4 0.0124,0.572 -0.12151,1.04 -0.29751,1.04 -0.176,0 -0.30988,-0.18 -0.29751,-0.4 z m 7.13276,-11.281227 c -0.11013,-0.286986 -0.0564,-0.665629 0.11941,-0.84143 0.21285,-0.212851 0.37737,-0.09886 0.49245,0.341191 0.20886,0.798679 -0.32869,1.238165 -0.61186,0.500239 z M 153.76,85.12 c 0.10877,-0.176 0.0453,-0.32 -0.14111,-0.32 -0.18639,0 -0.33889,0.144 -0.33889,0.32 0,0.176 0.0635,0.32 0.14111,0.32 0.0776,0 0.23012,-0.144 0.33889,-0.32 z m 25.21478,-9.953216 c -0.24339,-0.243398 -0.41362,-0.227543 -0.5881,0.05478 -0.1583,0.256122 -0.11427,0.316181 0.12388,0.168997 0.20319,-0.12558 0.36944,-0.05183 0.36944,0.163891 0,0.21572 0.0984,0.293819 0.21867,0.173552 0.12026,-0.120267 0.0645,-0.372814 -0.12389,-0.561216 z m -17.46887,-6.391937 0.0659,-1.734847 -0.44156,1.12 c -0.57099,1.448299 -0.61486,2.654397 -0.0902,2.481514 0.24286,-0.08003 0.42589,-0.813348 0.46591,-1.866667 z M 178.56,61.901115 c 0,-0.274387 -0.14635,-0.408437 -0.32522,-0.297889 -0.17887,0.110548 -0.24237,0.335047 -0.14111,0.498885 0.27431,0.443854 0.46633,0.361092 0.46633,-0.200996 z M 191.2586,60.74 c -0.10216,-0.255274 -0.17798,-0.179448 -0.19334,0.193333 -0.0139,0.337334 0.0617,0.526334 0.16807,0.42 C 191.33967,61.247 191.35104,60.971 191.2586,60.74 Z M 176,55.36 c 0,-0.176 -0.0635,-0.32 -0.14111,-0.32 -0.0776,0 -0.23012,0.144 -0.33889,0.32 -0.10877,0.176 -0.0453,0.32 0.14112,0.32 C 175.8475,55.68 176,55.536 176,55.36 Z m -22.88,-8.840948 c 0.9573,-0.613997 1.07831,-0.770665 0.48,-0.621423 -2.17692,0.543008 -4.27249,0.847679 -4.70057,0.683409 -0.67113,-0.25754 -1.24012,0.147763 -0.69359,0.494062 0.93484,0.592346 3.59254,0.291623 4.91416,-0.556048 z m 4.4,-0.35149 c 1.0573,-0.444736 1.61526,-1.047562 0.9696,-1.047562 -0.54608,0 -4.56369,1.460363 -4.5665,1.659881 -0.005,0.33746 2.25245,-0.0468 3.5969,-0.612319 z M 200,34.151202 c 0,-0.400839 -0.19557,-1.012839 -0.4346,-1.36 -0.23903,-0.347161 -0.53937,-1.202226 -0.66743,-1.900144 -0.12806,-0.697919 -0.44019,-1.669919 -0.69362,-2.16 -0.48808,-0.943847 -1.08435,-1.189949 -1.08435,-0.447553 0,0.610478 -2.23932,2.740261 -3.11435,2.962011 -0.39289,0.09957 -1.16544,0.02378 -1.71676,-0.168411 -0.55132,-0.192192 -1.12358,-0.274553 -1.27167,-0.183025 -0.59703,0.368984 0.16712,1.102428 1.66795,1.600924 0.87413,0.290338 2.40956,0.943913 3.41208,1.452388 1.00251,0.508476 2.29075,0.926325 2.86275,0.928554 0.87009,0.0034 1.04,-0.115012 1.04,-0.724744 z M 158.68519,33.84 c 0.69521,-1.858362 0.72542,-2.16 0.21637,-2.16 -0.34083,0 -0.50156,0.299248 -0.50156,0.933828 0,0.513605 -0.0874,1.161605 -0.19424,1.44 -0.10683,0.278395 -0.10326,0.506172 0.008,0.506172 0.11119,0 0.32337,-0.324 0.47151,-0.72 z m -0.72984,-12.903272 c -0.0964,-0.251201 -0.50378,-0.454523 -0.90531,-0.451828 -0.40152,0.0027 -0.58311,0.110695 -0.40353,0.24 0.17959,0.129305 0.53115,0.6671 0.78125,1.1951 0.43747,0.923564 0.45944,0.93179 0.57879,0.216728 0.0682,-0.4088 0.0452,-0.9488 -0.0512,-1.2 z m -1.8553,83.145232 c -0.92594,-1.07799 -0.9799,-1.51533 -0.0804,-0.65166 0.49853,0.47867 0.82916,0.94755 0.73475,1.04196 -0.0944,0.0944 -0.38887,-0.0812 -0.65435,-0.3903 z m 16.9055,-11.161578 c -0.76086,-1.595543 -0.47728,-1.687008 0.36104,-0.116448 0.37462,0.701836 0.57106,1.276066 0.43654,1.276066 -0.13453,0 -0.49344,-0.521828 -0.79758,-1.159618 z M 188.5607,92 c 0.004,-0.704 0.0691,-0.954321 0.14562,-0.556269 0.0765,0.398052 0.0736,0.974052 -0.006,1.28 C 188.61977,93.029679 188.55715,92.704 188.5607,92 Z M 172.16,90.861115 c 0,-0.186387 0.144,-0.249889 0.32,-0.141115 0.176,0.108774 0.32,0.261272 0.32,0.338885 0,0.07761 -0.144,0.141115 -0.32,0.141115 -0.176,0 -0.32,-0.152498 -0.32,-0.338885 z M 109.6,89.619012 c -0.84221,-0.342702 -3.12984,-2.604562 -5.10763,-5.050089 -0.8732,-1.079704 -1.7012,-1.89291 -1.84,-1.807125 -0.4172,0.257842 -0.2885,0.722076 0.38763,1.398202 0.50579,0.505794 0.53791,0.64 0.15314,0.64 -0.26777,0 -0.61868,-0.324 -0.77978,-0.72 -1.16275,-2.858026 -1.91182,-5.065288 -2.0905,-6.16 -0.1149,-0.704 -0.354083,-1.580074 -0.531508,-1.946831 -0.240809,-0.497783 -0.103942,-1.511822 0.539888,-4 0.47437,-1.833243 1.04371,-4.125169 1.26521,-5.093169 0.2215,-0.968 0.61939,-2.408 0.8842,-3.2 0.2648,-0.792 0.87851,-2.736 1.3638,-4.32 0.48528,-1.584 0.98859,-3.024 1.11846,-3.2 0.12988,-0.176 0.30345,-1.057649 0.38572,-1.959221 0.11099,-1.216222 0.63027,-2.517164 2.01235,-5.04146 1.02452,-1.871231 1.91169,-3.353319 1.97148,-3.293528 0.0598,0.05979 -0.68046,1.608448 -1.64501,3.44146 -0.96454,1.833012 -1.7568,3.440749 -1.76058,3.572749 -0.0182,0.637088 0.63225,0.113606 1.19291,-0.96 0.34466,-0.66 1.09771,-2.041264 1.67344,-3.069476 0.57573,-1.028212 1.04678,-2.246889 1.04678,-2.708172 0,-0.461282 0.342,-1.747305 0.76,-2.857828 0.92748,-2.464075 0.92909,-2.525662 0.0721,-2.749769 -0.9187,-0.240246 -2.37774,1.32427 -2.88618,3.094822 -0.21013,0.731733 -0.61311,1.690423 -0.89552,2.130423 -0.2824,0.44 -0.71261,1.196 -0.956,1.68 -0.2434,0.484 -0.63421,0.88 -0.86847,0.88 -0.23426,0 -0.42593,0.118064 -0.42593,0.262365 0,0.144301 -0.44451,0.756301 -0.98781,1.36 -0.54329,0.603699 -1.76544,2.196939 -2.71589,3.540532 -1.523397,2.153539 -1.767361,2.719818 -2.059661,4.780801 -0.372085,2.623541 -0.615326,3.17768 -0.680217,1.549635 -0.02988,-0.749636 -0.08717,-0.866996 -0.182256,-0.373333 -0.07627,0.396 -0.308663,0.721123 -0.516422,0.722497 -0.435741,0.0029 -1.177744,1.452746 -1.177744,2.3013 0,0.316911 -0.133714,0.576203 -0.297143,0.576203 -0.163428,0 -0.523428,0.226286 -0.8,0.502857 -0.647429,0.647429 -0.65017,0.169867 -0.0043,-0.752216 0.274196,-0.39147 0.427437,-0.826808 0.340536,-0.967417 -0.0869,-0.140609 0.132225,-1.544356 0.486948,-3.119438 C 96.400746,57.128704 96.693904,55.372 96.697487,54.8 c 0.0036,-0.572 0.147555,-1.04 0.319939,-1.04 0.186502,0 0.222166,-0.421153 0.08807,-1.04 -0.186233,-0.859441 -1.730295,-3.068367 -4.458904,-6.378881 -1.073109,-1.301961 -1.4876,-2.187788 -1.300109,-2.778521 0.109755,-0.345805 0.0497,-0.721355 -0.133463,-0.834553 C 91.029858,42.614846 90.88,42.146066 90.88,41.686312 c 0,-0.459755 -0.252,-1.135257 -0.56,-1.501115 -0.559435,-0.664526 -0.559273,-0.664582 0.16,-0.0556 0.396,0.335278 0.72,0.827278 0.72,1.093333 0,0.266056 0.09341,0.390326 0.207582,0.276156 0.11417,-0.11417 0.778073,0.307822 1.47534,0.937761 2.465058,2.227032 4.624391,2.466352 5.939491,0.658277 0.553926,-0.76157 0.713275,-0.855267 0.637967,-0.375123 -0.05521,0.352 -0.316153,0.808226 -0.579877,1.013836 -0.586631,0.457363 -0.28982,0.837099 0.436458,0.5584 0.29071,-0.111556 0.615393,-0.548785 0.721519,-0.971619 0.10612,-0.422835 0.38966,-0.878871 0.63007,-1.013414 0.24041,-0.134543 0.50625,-0.784599 0.59075,-1.444569 0.0845,-0.659971 0.22787,-1.320075 0.31861,-1.466898 0.17611,-0.284943 0.33178,-1.212967 0.90511,-5.395736 0.19903,-1.452 0.47417,-2.64 0.61142,-2.64 0.13726,0 0.16316,-0.432 0.0576,-0.96 -0.1231,-0.615477 -0.0617,-0.96 0.17113,-0.96 0.26099,0 0.3148,-1.165855 0.1913,-4.145009 -0.17485,-4.218005 -0.86919,-7.006462 -2.28127,-9.161573 -0.28592,-0.436365 -0.42197,-0.89127 -0.30235,-1.010899 0.28262,-0.282614 1.76269,1.527165 1.77768,2.173684 0.0174,0.747981 0.75777,2.191431 1.21547,2.369546 0.28946,0.112644 0.35177,-0.08981 0.21983,-0.714274 -0.18258,-0.864191 -0.17579,-0.862114 0.81303,0.248525 0.54844,0.616 1.42423,1.76079 1.94621,2.543977 1.03342,1.550579 3.29623,4.413676 5.15222,6.519037 1.2833,1.455726 2.01505,1.37728 1.15363,-0.123672 C 112.91237,27.622704 112.80707,27.2 112.97488,27.2 c 0.16782,0 0.30512,0.144 0.30512,0.32 0,0.176 0.252,0.31946 0.56,0.318801 0.5736,-0.0012 1.68,-2.171311 1.68,-3.295121 0,-0.752264 0.98944,-2.074767 3.52,-4.704915 1.95443,-2.031346 5.27481,-4.430619 5.63421,-4.071224 0.0892,0.08919 -0.31084,0.833198 -0.88894,1.653359 -0.8691,1.232998 -0.97054,1.540989 -0.58587,1.778732 0.39404,0.243526 0.3616,0.427701 -0.21194,1.203461 -0.37245,0.503762 -1.1202,1.793554 -1.66167,2.866204 -0.54147,1.07265 -1.14043,2.00225 -1.33101,2.065778 -0.50924,0.169744 -1.08985,4.737854 -0.65718,5.170521 0.18832,0.188322 0.3402,0.493604 0.3375,0.678404 -0.003,0.1848 -0.12765,0.142317 -0.27768,-0.09441 -0.4205,-0.663494 -0.67314,0.757153 -0.53295,2.996902 0.0659,1.052428 -0.0837,3.488349 -0.33235,5.413159 -0.55049,4.261097 -0.59055,11.625158 -0.073,13.42322 0.37131,1.290028 1.22089,2.874615 1.22089,2.277126 0,-0.166322 0.22417,0.01764 0.49815,0.408798 0.27398,0.391161 0.71447,0.711202 0.97888,0.711202 0.26441,0 0.39516,0.138479 0.29055,0.30773 -0.27348,0.442511 2.18201,1.61227 3.38439,1.61227 0.55961,0 1.17735,-0.199959 1.37275,-0.444353 0.19541,-0.244394 0.93128,-0.543599 1.63528,-0.664901 1.03629,-0.178556 1.20384,-0.142693 0.88,0.188353 -0.22,0.224896 -0.4,0.736403 -0.4,1.136683 0,0.470264 -0.31138,0.888845 -0.88,1.182967 -0.87839,0.45435 -4.06986,3.781929 -4.09134,4.265827 -0.006,0.140483 -0.1913,0.579424 -0.41126,0.975424 -0.36842,0.663288 -0.28113,0.856379 0.3426,0.757895 0.41946,-0.06623 0.26002,0.379509 -0.37969,1.061481 C 122.55949,67.062719 122.14359,68.08 121.9761,68.96 l -0.30452,1.6 -0.046,-1.28 c -0.043,-1.197477 -0.0763,-1.239953 -0.51579,-0.658839 -0.2584,0.341639 -0.46982,1.065637 -0.46982,1.608883 0,0.591727 -0.25659,1.207419 -0.64,1.535707 -0.42269,0.361917 -0.64,0.94398 -0.64,1.714222 0,0.64143 -0.1737,2.10894 -0.386,3.261132 -0.30217,1.639965 -0.30174,2.122981 0.002,2.224226 0.2134,0.07113 0.31926,0.240549 0.23525,0.376481 -0.21788,0.352544 2.30014,0.180356 3.90678,-0.267155 0.87113,-0.242643 1.78658,-0.841451 2.55335,-1.670183 1.4089,-1.522748 2.95544,-4.051179 2.96317,-4.844474 0.003,-0.308 0.14946,-0.56 0.32546,-0.56 0.176,0 0.28941,-0.108 0.25202,-0.24 -0.0374,-0.132 0.0968,-0.536297 0.29831,-0.898438 0.20146,-0.36214 0.46686,-1.94614 0.58978,-3.52 0.12292,-1.573859 0.36515,-3.040161 0.53829,-3.258449 0.93135,-1.174217 0.53114,-8.213068 -0.77699,-13.665557 -0.49591,-2.067005 -0.58319,-2.896964 -0.31408,-2.986667 0.51075,-0.170248 0.46768,-1.464048 -0.0934,-2.806975 -0.25635,-0.613542 -0.46215,-1.186192 -0.45733,-1.272555 0.0488,-0.87267 -1.55567,-11.775488 -2.31502,-15.731821 -0.17529,-0.913254 -0.61284,-2.034395 -0.97234,-2.491424 l -0.65363,-0.830963 0.88116,-0.868575 c 0.48464,-0.477717 1.29427,-1.516576 1.79916,-2.308576 0.5049,-0.792 1.45487,-1.896792 2.11105,-2.455094 0.95947,-0.816352 1.11474,-1.095151 0.79305,-1.424 C 130.16334,16.753638 130.10407,15.36 130.56,15.36 c 0.176,0 0.32,0.161632 0.32,0.359182 0,0.248162 0.14836,0.236051 0.48,-0.03918 0.41053,-0.340706 0.48002,-0.242165 0.48016,0.680818 9e-5,0.59355 0.30689,1.871182 0.68177,2.839182 0.37488,0.968 0.84925,2.39637 1.05416,3.174156 0.49408,1.875468 1.26735,2.381429 1.9899,1.302013 0.29312,-0.437893 1.58547,-1.804169 2.87189,-3.036169 2.46772,-2.363335 2.7435,-3.041094 2.18098,-5.36 -0.29265,-1.206396 0.28474,-1.122104 1.09597,0.16 0.36192,0.572 1.04417,1.510037 1.51611,2.084526 0.47193,0.574489 0.89772,1.405834 0.9462,1.847433 0.1149,1.04668 3.91997,10.060652 4.55396,10.788041 0.26845,0.308 0.72177,0.56 1.00738,0.56 0.66334,0 1.70708,1.202674 1.43118,1.649099 -0.14295,0.231288 -0.27458,0.234178 -0.4137,0.0091 -0.22685,-0.367052 -1.18284,-0.502754 -3.01485,-0.427952 -1.60798,0.06565 -1.22097,0.689768 0.42773,0.689768 0.98475,0 1.21157,0.10295 1.0655,0.483611 -0.21457,0.559161 -2.16577,0.472962 -2.76069,-0.12196 -0.19891,-0.198908 -1.01685,-0.362454 -1.81765,-0.363436 -1.70898,-0.0021 -3.66405,-0.494029 -4.2452,-1.06818 -0.65744,-0.649516 -1.61628,-0.909499 -1.86573,-0.505881 C 138.29695,31.46562 136.12084,30.883396 135.52,30.25479 135.21921,29.940098 132.95369,28.8 132.62914,28.8 c -0.3616,0 -0.0877,1.320946 0.65086,3.138471 0.89163,2.194323 1.03801,3.206474 0.28656,1.981529 -0.26992,-0.44 -0.40882,-0.536223 -0.30866,-0.213828 0.10015,0.322395 0.1821,0.870893 0.1821,1.218885 0,0.347993 0.13476,0.549428 0.29946,0.447635 0.3317,-0.204999 0.8538,2.620712 0.54187,2.932648 -0.10768,0.107676 -0.0699,0.353023 0.0841,0.545217 0.42903,0.535726 0.9897,3.529889 1.1676,6.235377 0.088,1.338736 0.29589,3.586066 0.46191,4.994066 0.16601,1.408 0.392,3.82 0.50219,5.36 0.1102,1.54 0.30887,2.8 0.44149,2.8 0.13263,0 0.91573,-1.368 1.74022,-3.04 0.82449,-1.672 1.63905,-3.04 1.81014,-3.04 0.17108,0 0.31105,-0.224498 0.31105,-0.498885 0,-0.274387 0.15358,-0.403968 0.34129,-0.287956 0.18771,0.116011 0.54313,-0.05549 0.78982,-0.381115 0.27947,-0.368884 0.45237,-0.436228 0.45871,-0.178664 0.006,0.227359 -0.27782,0.722512 -0.62982,1.10034 -0.352,0.377828 -0.64,0.803806 -0.64,0.94662 0,0.453783 0.5885,0.280071 1.02186,-0.301627 0.48727,-0.654084 3.70348,-1.865165 4.03373,-1.518926 0.12343,0.129401 -0.0473,0.398386 -0.37943,0.597744 -0.33211,0.199358 -1.2701,0.794469 -2.08442,1.322469 -0.81432,0.528 -1.6946,1.005825 -1.95616,1.061833 -1.16488,0.249429 -1.88258,1.138575 -2.8247,3.499437 -0.55598,1.393258 -1.01088,2.692442 -1.01088,2.887077 0,0.194635 -0.15943,0.452414 -0.35428,0.572841 -0.23841,0.147345 -0.28369,-0.0035 -0.13844,-0.461115 0.2962,-0.93325 -0.22354,-0.855717 -0.66631,0.0994 -0.25541,0.550977 -0.26003,0.873469 -0.016,1.117504 0.24404,0.244035 0.23221,0.453842 -0.041,0.727026 -0.29867,0.298667 -0.384,0.263111 -0.384,-0.16 0,-0.2992 -0.13409,-0.544 -0.29798,-0.544 -0.16589,0 -0.35532,-2.234228 -0.42732,-5.04 -0.0711,-2.772 -0.28548,-5.976 -0.4763,-7.12 -0.19083,-1.144 -0.5179,-3.376 -0.72682,-4.96 -0.39898,-3.024957 -1.05982,-6.683347 -2.38287,-13.191472 C 131.32068,28.06407 131.23008,26.56 131.71424,26.56 c 0.0692,0 0.39416,0.268396 0.7222,0.596436 0.32804,0.32804 1.66004,0.964838 2.96,1.415107 1.29996,0.450269 3.37156,1.206463 4.60356,1.680432 2.25763,0.868542 3.68347,1.281774 3.67589,1.06533 -0.002,-0.06452 -0.45049,-2.205305 -0.99608,-4.757305 -0.54558,-2.552 -1.06286,-5.18 -1.1495,-5.84 -0.0866,-0.66 -0.2076,-1.2 -0.26878,-1.2 -0.24829,0 -5.00851,5.033195 -5.66986,5.994989 -0.39142,0.569244 -0.88621,1.102629 -1.09953,1.1853 -0.23814,0.09228 -0.99956,-1.127229 -1.97239,-3.159037 -0.87148,-1.82014 -1.73339,-3.401354 -1.91534,-3.513808 -0.55157,-0.340887 -2.962,3.158735 -3.15216,4.576522 -0.18356,1.368546 0.62388,6.211518 1.33981,8.036034 0.67755,1.726726 0.82809,3.125654 0.43031,3.998688 -0.28689,0.629671 -0.25409,1.045653 0.15758,1.998262 0.28594,0.661678 0.65579,2.57105 0.82188,4.24305 0.30916,3.112288 1.39674,10.894074 1.97416,14.125451 0.17744,0.992998 0.2348,2.432998 0.12747,3.2 -0.14458,1.033153 -0.1068,1.270157 0.14579,0.914549 0.25489,-0.358835 0.33598,0.04505 0.32126,1.6 l -0.0197,2.08 -0.40945,-1.28 c -0.45734,-1.429696 -0.68411,-1.153867 -0.92078,1.12 -0.0824,0.792 -0.2532,1.692 -0.37947,2 -0.12628,0.308 -0.0897,0.56 0.0812,0.56 0.17095,0 0.53236,-0.54 0.80314,-1.2 0.34819,-0.84868 0.50143,-1.006742 0.52342,-0.539889 0.0171,0.363061 -0.3289,1.406355 -0.7689,2.318431 -0.44,0.912076 -0.8,1.749962 -0.8,1.861968 0,0.455072 -3.05072,6.162226 -4.19817,7.853737 -1.13589,1.674489 -2.72242,3.152602 -3.37123,3.140853 -0.14883,-0.0027 -0.0588,-0.138865 0.20013,-0.302601 0.25891,-0.163735 0.37622,-0.392218 0.2607,-0.507739 -0.11552,-0.115522 -0.5394,0.02065 -0.94194,0.3026 -0.82586,0.578454 -3.19456,0.682294 -4.13105,0.181099 -1.16635,-0.624209 -1.65566,-2.4449 -1.47189,-5.476816 0.1909,-3.149564 1.1575,-5.946358 3.13525,-9.071643 0.9489,-1.499475 3.4782,-6.160643 3.4782,-6.409873 0,-0.02656 -0.78723,-0.224459 -1.74941,-0.439785 -1.46629,-0.328142 -1.91546,-0.608265 -2.77547,-1.730921 -0.56434,-0.736682 -1.22469,-1.504846 -1.46746,-1.707032 -0.24277,-0.202186 -0.61644,-1.066186 -0.83039,-1.92 -0.28798,-1.149292 -0.52662,-1.52941 -0.91904,-1.463893 -0.42018,0.07015 -0.57648,-0.28309 -0.75403,-1.704115 -0.14966,-1.197838 -0.10257,-1.91401 0.14192,-2.158497 0.27451,-0.274512 0.32216,-0.128642 0.19079,0.584116 -0.0963,0.5225 -0.0394,1.382 0.1265,1.91 0.2285,0.727378 0.2966,0.145822 0.28102,-2.4 -0.0135,-2.213816 -0.086,-2.868778 -0.21249,-1.92 -0.11328,0.849858 -0.29344,1.283503 -0.43962,1.058134 -0.35259,-0.543617 1.04903,-14.351496 1.69906,-16.738134 0.39598,-1.453838 0.39119,-2.328801 -0.0114,-2.08 -0.176,0.108774 -0.32,0.04075 -0.32,-0.151158 0,-0.19191 0.20904,-0.429143 0.46452,-0.527182 0.51946,-0.199335 1.21759,-2.035671 1.10717,-2.912245 -0.0395,-0.313178 0.0948,-0.974789 0.29829,-1.470247 0.6261,-1.52426 0.3813,-2.055451 -0.3222,-0.699168 -0.36517,0.704 -0.86645,1.511369 -1.11396,1.794154 -0.24752,0.282785 -0.74794,1.362785 -1.11205,2.4 -0.99795,2.842771 -1.55999,3.645846 -2.55158,3.645846 -0.4685,0 -1.03109,-0.216 -1.25019,-0.48 -0.2191,-0.264 -0.55189,-0.48 -0.73954,-0.48 -0.47369,0 -5.00855,-4.86379 -5.01512,-5.378885 C 106.5624,24.150728 106.416,24.051226 106.24,24.16 c -0.46895,0.28983 -0.39021,2.61468 0.12248,3.615891 0.50129,0.978956 1.05289,4.522027 0.64237,4.12611 -0.14713,-0.141899 -0.29882,-0.747299 -0.33707,-1.345334 C 106.59,29.340914 106.05833,28.16 105.58874,28.16 c -0.16981,0 -0.30874,1.008 -0.30874,2.24 0,1.777778 -0.0991,2.24 -0.48,2.24 -0.27125,0 -0.48,0.286543 -0.48,0.658885 0,0.362387 0.144,0.569889 0.32,0.461115 0.42879,-0.265006 0.4072,0.679138 -0.0344,1.504269 -0.2884,0.53889 -0.41239,0.579662 -0.66584,0.218963 -0.21567,-0.306921 -0.26564,-0.04958 -0.16249,0.836768 0.0819,0.704 0.0359,1.64 -0.10225,2.08 -0.13818,0.44 -0.26558,0.62 -0.28312,0.4 -0.0879,-1.102682 -0.57886,-0.127957 -1.09731,2.178678 -0.34931,1.554105 -0.76727,2.650694 -1.05194,2.759933 -0.25978,0.09969 -0.82809,0.883285 -1.262885,1.741322 -0.892564,1.761391 -1.538409,1.950927 -3.48489,1.022715 -0.619761,-0.295543 -1.204056,-0.460134 -1.298433,-0.365757 -0.229183,0.229183 1.429059,3.331415 2.275926,4.257795 0.779756,0.852967 1.215978,1.755356 1.124075,2.325314 -0.140408,0.870771 0.669455,0.316922 1.871677,-1.28 5.56417,-7.390958 6.09649,-8.197794 6.71072,-10.171326 0.39083,-1.255737 0.51644,-2.120345 0.32521,-2.23853 -0.17136,-0.105908 -0.22506,-0.625074 -0.11934,-1.153702 0.14268,-0.71338 0.36568,-0.95538 0.86511,-0.938791 0.51756,0.01719 0.7269,-0.235496 0.90686,-1.094598 0.12947,-0.618083 0.0984,-1.280273 -0.0695,-1.48263 -0.20216,-0.243599 -0.13621,-0.429871 0.19756,-0.557953 0.43833,-0.168202 0.47413,0.104901 0.28594,2.181648 l -0.21512,2.373918 1.08223,0.661615 c 0.59523,0.363888 1.25171,0.59789 1.45884,0.520003 0.66969,-0.251817 1.1993,0.718745 0.82467,1.511254 -0.18436,0.390001 -0.7324,1.861092 -1.21785,3.269092 -0.48546,1.408 -1.50283,3.952669 -2.26082,5.654819 -0.75799,1.702151 -1.58855,3.934151 -1.84569,4.96 -0.49741,1.984418 -1.29649,4.16056 -3.33172,9.073324 -1.3906,3.356692 -1.87761,5.111857 -1.41841,5.111857 0.1798,0 0.19139,0.665139 0.0293,1.68 -0.19774,1.23787 -0.16539,5.52 0.0417,5.52 0.0126,0 0.0632,0.864 0.11225,1.92 0.0927,1.994143 0.86545,3.68 1.68679,3.68 0.24376,0 0.4432,0.124416 0.4432,0.27648 0,0.527328 2.4105,1.922044 4.48,2.592127 1.144,0.370416 2.39229,0.830576 2.77397,1.022579 0.38168,0.192002 1.10168,0.273337 1.6,0.180744 0.49832,-0.09259 1.73054,-0.318539 2.73826,-0.5021 1.00773,-0.183562 2.44773,-0.687111 3.2,-1.118998 0.75228,-0.431886 2.15977,-1.015064 3.12777,-1.295951 2.08163,-0.604031 5.87694,-2.9867 7.82177,-4.910449 1.12285,-1.110688 3.09383,-6.193649 3.29254,-8.491159 0.12312,-1.423557 0.35723,-2.170225 0.8191,-2.612378 0.64556,-0.618004 0.64638,-0.616596 0.45746,0.791869 -0.19631,1.463607 0.61671,4.541685 1.5525,5.877703 0.25114,0.358565 0.45663,0.96449 0.45663,1.346499 0,0.382008 0.18112,0.764061 0.40248,0.849006 0.22136,0.08495 0.66782,0.892351 0.99214,1.794236 1.07536,2.990477 1.28118,2.086678 1.06585,-4.680208 -0.20041,-6.297769 -0.17126,-6.705255 1.03952,-14.534007 0.36526,-2.361672 0.92646,-3.856858 1.34951,-3.595401 0.15175,0.09379 0.40957,-0.162727 0.57292,-0.570034 0.16336,-0.407307 0.30614,-0.554821 0.3173,-0.32781 0.0111,0.227012 -0.2737,0.988989 -0.633,1.693284 -0.38,0.744853 -0.71861,2.178566 -0.80944,3.427252 -0.0859,1.180694 -0.21768,2.835361 -0.29286,3.677039 -0.092,1.02965 -0.0254,1.461501 0.20365,1.319966 0.23457,-0.14497 0.25513,0.125358 0.0661,0.869677 -0.49291,1.941378 -0.23666,13.358926 0.35641,15.880034 0.0932,0.396 0.23984,1.044 0.32597,1.44 0.0861,0.396 0.53279,1.44 0.99258,2.32 1.38069,2.642568 1.4855,3.04 0.80172,3.04 -0.36927,0 -0.75286,-0.392658 -1.01598,-1.04 -0.2325,-0.572 -0.68197,-1.228165 -0.99882,-1.458145 -0.31686,-0.22998 -0.5761,-0.567751 -0.5761,-0.750602 0,-0.55896 -1.31073,-2.210032 -1.60841,-2.026053 -0.15371,0.095 -0.44798,-0.155308 -0.65393,-0.556237 -0.20595,-0.40093 -0.80823,-1.187472 -1.33839,-1.747871 -0.66498,-0.702912 -0.89594,-1.196098 -0.74469,-1.590246 0.12059,-0.314236 0.11781,-0.469907 -0.006,-0.345935 -0.28209,0.282091 -0.97094,-1.020224 -1.41819,-2.681188 -0.39324,-1.460393 -0.83575,-1.379383 -1.13345,0.207502 C 134.42254,76.301051 134.1608,76.8 133.9553,76.8 c -0.52809,0 -4.42004,3.988436 -4.15276,4.255717 0.36077,0.360762 -0.82782,1.457449 -3.9164,3.61361 -1.60271,1.118863 -3.09635,2.253981 -3.31918,2.522485 -0.22284,0.268503 -0.64528,0.488188 -0.93875,0.488188 -0.29347,0 -1.38555,0.221908 -2.42684,0.49313 -1.04129,0.271221 -3.01001,0.515129 -4.37494,0.542018 -1.82756,0.036 -2.40132,0.145735 -2.17676,0.416313 0.16772,0.202084 0.21019,0.462176 0.0944,0.577982 -0.28827,0.288268 -2.35964,0.228687 -3.14389,-0.09043 z m 2.18035,-0.866032 c 0.11386,-0.11386 -0.61814,-0.639366 -1.62666,-1.167789 -1.00853,-0.528424 -2.26356,-1.377653 -2.78896,-1.887177 -0.61601,-0.597399 -1.0022,-0.785603 -1.08742,-0.52994 -0.16457,0.493697 1.57583,1.993451 3.48269,3.001147 1.59803,0.844489 1.7234,0.880714 2.02035,0.583759 z m 6.51969,-1.419994 c 0.49498,-0.190492 1.54796,-0.392792 2.33996,-0.449556 0.792,-0.05676 1.548,-0.116758 1.68,-0.133319 0.132,-0.01656 0.24221,-0.354111 0.2449,-0.750111 0.004,-0.569064 0.0674,-0.621256 0.30279,-0.248968 0.25612,0.404996 0.32687,0.395489 0.50466,-0.06782 0.11372,-0.296367 0.45809,-0.618616 0.76526,-0.716108 0.30717,-0.09749 1.0398,-0.606973 1.62808,-1.132181 0.58827,-0.525208 1.2327,-0.954924 1.43208,-0.954924 0.19937,0 0.77637,-0.432 1.28223,-0.96 1.29237,-1.348945 0.72714,-1.195124 -1.72982,0.47075 -1.94239,1.316985 -3.70214,1.906978 -6.48669,2.174792 -0.29507,0.02838 -0.47415,0.152482 -0.39795,0.275782 0.16567,0.268067 -1.87808,1.042516 -4.43888,1.682041 -1.76121,0.439837 -1.96802,0.424828 -4.16,-0.301926 -2.63051,-0.872146 -2.78666,-0.898243 -2.78666,-0.465733 0,0.173638 0.468,0.53749 1.04,0.808561 0.572,0.27107 1.4,0.713105 1.84,0.982301 0.61981,0.379206 1.39012,0.449277 3.42004,0.311105 1.44103,-0.09809 3.02503,-0.334196 3.52,-0.524687 z m -17.14926,-9.483784 c -0.28049,-0.481875 -0.33281,-0.417828 -0.34105,0.417465 -0.005,0.542666 0.0983,1.096337 0.23027,1.230379 0.38203,0.387937 0.47664,-1.019314 0.11078,-1.647844 z m 17.37144,-2.380313 c 0.19225,-0.961227 0.0605,-1.518249 -0.27889,-1.178889 -0.3439,0.343908 -0.54903,2.19 -0.24333,2.19 0.176,0 0.411,-0.455 0.52222,-1.011111 z m -17.1954,-1.062264 c -0.0862,-0.224751 -0.0387,-0.534185 0.1056,-0.687631 0.42599,-0.452907 0.77936,-3.758212 0.37509,-3.508354 -0.4671,0.288679 -1.00355,2.319989 -1.00573,3.808245 -10e-4,0.783318 0.12037,1.143395 0.34004,1.007632 0.18799,-0.116189 0.27125,-0.395141 0.185,-0.619892 z M 118.56,72 c 0.10877,-0.176 0.0453,-0.32 -0.14111,-0.32 -0.18639,0 -0.33889,0.144 -0.33889,0.32 0,0.176 0.0635,0.32 0.14111,0.32 0.0776,0 0.23012,-0.144 0.33889,-0.32 z m 0.78982,-2.381161 c -0.006,-0.186362 -0.22159,-0.05932 -0.48,0.282322 -0.2584,0.341639 -0.46524,0.773639 -0.45964,0.96 0.006,0.186362 0.22159,0.05932 0.48,-0.282322 0.2584,-0.341639 0.46524,-0.773639 0.45964,-0.96 z M 122.1386,65.54 c -0.10216,-0.255274 -0.17798,-0.179448 -0.19334,0.193333 -0.0139,0.337334 0.0617,0.526334 0.16807,0.42 C 122.21967,66.047 122.23104,65.771 122.1386,65.54 Z m 3.6214,-5.759869 c 0,-0.143072 -0.25695,-0.260131 -0.57101,-0.260131 -0.60562,0 -1.79746,1.684867 -1.44274,2.039579 0.22677,0.226775 2.01375,-1.352285 2.01375,-1.779448 z M 99.017143,46.217143 C 99.825783,45.408503 99.627373,45.018525 98.52,45.24 c -0.55,0.11 -1.378,0.206036 -1.84,0.213413 -0.813522,0.01299 -0.804696,0.03274 0.28,0.626587 1.379041,0.754993 1.435527,0.758759 2.057143,0.137143 z M 117.0881,38.301115 C 117.10671,37.776866 116.98663,37.484656 116.8,37.6 c -0.176,0.108774 -0.30565,0.873272 -0.2881,1.698885 0.0261,1.22905 0.0783,1.356121 0.2881,0.701115 0.14091,-0.44 0.27056,-1.204498 0.2881,-1.698885 z m 30.25678,-7.236646 C 147.51303,30.792386 145.93473,29.44 145.44904,29.44 c -0.31626,0 0.18142,1.403239 0.59409,1.6751 0.4936,0.325174 1.08367,0.302223 1.30175,-0.05063 z M 137.28,30.251259 c 0,-0.08181 -0.288,-0.302874 -0.64,-0.491259 -0.51082,-0.27338 -0.64,-0.243357 -0.64,0.148741 0,0.277926 0.27793,0.491259 0.64,0.491259 0.352,0 0.64,-0.06693 0.64,-0.148741 z m 7.99899,-4.600863 C 144.78993,24.090478 144.1598,22.39699 143.8787,21.88709 l -0.51108,-0.92709 0.17634,1.44 c 0.276,2.253772 0.38567,2.648943 1.27308,4.587302 0.45815,1.000746 0.94959,1.747486 1.09208,1.659424 0.14249,-0.08806 -0.14107,-1.436411 -0.63013,-2.99633 z m -24.29227,-4.92353 c 0.23653,-0.575776 0.75928,-1.534961 1.16167,-2.131521 1.00782,-1.494147 0.90356,-2.015725 -0.15777,-0.789289 -1.85473,2.143255 -2.20851,2.743831 -2.06342,3.502831 0.18147,0.949294 0.50302,0.772661 1.05952,-0.582021 z M 131.55001,18.46201 C 131.29666,18.208663 131.2,18.291697 131.2,18.762667 c 0,0.845998 0.44751,1.295051 0.59001,0.59205 0.0605,-0.298484 -0.0475,-0.700202 -0.24,-0.892707 z M 173.17053,84.16 c 0,-0.44 0.0726,-0.62 0.1614,-0.4 0.0888,0.22 0.0888,0.58 0,0.8 -0.0888,0.22 -0.1614,0.04 -0.1614,-0.4 z m 16.67663,-0.96 c 0,-0.792 0.0624,-1.116 0.13868,-0.72 0.0763,0.396 0.0763,1.044 0,1.44 -0.0763,0.396 -0.13868,0.072 -0.13868,-0.72 z M 172.8,82.56 c 0,-0.352 0.0552,-0.64 0.12268,-0.64 0.0675,0 0.19799,0.288 0.29004,0.64 0.0921,0.352 0.0369,0.64 -0.12268,0.64 -0.15952,0 -0.29004,-0.288 -0.29004,-0.64 z m -50.81762,-7.52 c 0.007,-0.528 0.0782,-0.705259 0.15938,-0.39391 0.0811,0.31135 0.0758,0.74335 -0.0119,0.96 -0.0877,0.216651 -0.15404,-0.03809 -0.14752,-0.56609 z M 121.68716,72 c 0,-0.792 0.0624,-1.116 0.13867,-0.72 0.0763,0.396 0.0763,1.044 0,1.44 -0.0763,0.396 -0.13867,0.072 -0.13867,-0.72 z M 192.32,67.432219 c 0,-0.458947 0.14977,-0.927012 0.33283,-1.040146 0.2183,-0.134917 0.25786,0.106336 0.11498,0.701115 -0.29453,1.226052 -0.44781,1.342096 -0.44781,0.339031 z m -8.9551,-2.498886 C 183.3676,64.508 183.51139,63.944 183.68445,63.68 c 0.22138,-0.337704 0.25373,-0.147976 0.10914,0.64 -0.25325,1.380091 -0.4352,1.640414 -0.42869,0.613333 z M 184.02739,62.72 c -0.01,-0.264 0.122,-0.696 0.29261,-0.96 0.37802,-0.584949 0.37802,-0.07971 0,0.8 -0.18134,0.421997 -0.28101,0.476498 -0.29261,0.16 z M 133.03772,58.4 c -0.13326,-1.408 -0.36193,-3.725524 -0.50815,-5.150053 -0.14623,-1.424529 -0.16323,-3.224529 -0.0378,-4 0.17597,-1.087747 0.23725,-0.671316 0.26815,1.822302 0.022,1.777736 0.19078,3.664645 0.37502,4.19313 0.18423,0.528484 0.29223,2.025973 0.24,3.327751 L 133.28,60.96 Z M 122.18,56.741404 c 0.231,-0.09244 0.507,-0.08107 0.61333,0.02526 0.10634,0.106333 -0.0827,0.181965 -0.42,0.16807 -0.37278,-0.01535 -0.4486,-0.09118 -0.19333,-0.193333 z M 98.773334,50.986667 C 98.477658,50.690991 98.505193,49.92 98.811429,49.92 c 0.138286,0 0.251428,0.288 0.251428,0.64 0,0.721551 0.0022,0.718357 -0.289523,0.426667 z M 33.92,48.64 c -0.288413,-0.186387 -0.327882,-0.312156 -0.09889,-0.3151 0.209613,-0.0027 0.470111,0.1391 0.578885,0.3151 0.245538,0.397288 0.13476,0.397288 -0.48,0 z m 98.10069,-2.08 c -0.35464,-1.764646 -2.062,-8.646825 -2.2972,-9.259759 C 129.61791,37.025108 129.66921,36.8 129.83748,36.8 c 0.16828,0 0.69395,1.548 1.16816,3.44 0.4742,1.892 1.01272,4.030836 1.19669,4.752968 0.18398,0.722133 0.27625,1.658133 0.20505,2.08 -0.10416,0.617174 -0.17971,0.516953 -0.38669,-0.512968 z M 2.88,45.12 c 0,-0.176 0.288,-0.32 0.64,-0.32 0.352,0 0.64,0.144 0.64,0.32 0,0.176 -0.288,0.32 -0.64,0.32 -0.352,0 -0.64,-0.144 -0.64,-0.32 z m 96.96,-3.2 c 0,-0.176 0.152499,-0.32 0.33889,-0.32 0.18638,0 0.24988,0.144 0.14111,0.32 -0.10877,0.176 -0.26127,0.32 -0.338885,0.32 C 99.903502,42.24 99.84,42.096 99.84,41.92 Z m 19.22526,-8.186667 c 0.0154,-0.372781 0.0912,-0.448607 0.19334,-0.193333 0.0924,0.231 0.0811,0.507 -0.0253,0.613333 -0.10633,0.106334 -0.18196,-0.08267 -0.16807,-0.42 z m -63.679997,-1.6 c 0.01535,-0.372781 0.09118,-0.448607 0.193334,-0.193333 0.09244,0.231 0.08107,0.507 -0.02526,0.613333 -0.106333,0.106334 -0.181964,-0.08267 -0.16807,-0.42 z M 79.92,26.34807 c 0.22,-0.08877 0.58,-0.08877 0.8,0 0.22,0.08877 0.04,0.161404 -0.4,0.161404 -0.44,0 -0.62,-0.07263 -0.4,-0.161404 z m 37.86526,-6.694737 c 0.0154,-0.372781 0.0912,-0.448607 0.19334,-0.193333 0.0924,0.231 0.0811,0.507 -0.0253,0.613333 -0.10633,0.106334 -0.18196,-0.08267 -0.16807,-0.42 z m 11.99531,-1.827134 c 0.12017,-0.315591 0.29911,-0.493191 0.39763,-0.394667 0.0985,0.09852 2e-4,0.356735 -0.21849,0.573801 -0.31604,0.313686 -0.35279,0.27693 -0.17914,-0.179134 z"
       id="path1" />
  </g>
</svg>
