<svg xmlns="http://www.w3.org/2000/svg" viewBox="0 25 200 200"><g fill="#61DAFB"><path style="fill:#F00" d="m 130.10456,188.8 h -0.45545 l -1.00083,-0.84214 -1.00083,-0.84215 -0.38373,-0.90349 -0.38372,-0.9035 -1.11856,-0.74614 -1.11856,-0.74614 -1.60144,-3.03512 -1.60144,-3.03512 -4.27699,-7.1931 -4.277,-7.1931 -2.10517,-3.2 -2.10518,-3.2 -2.73783,-2.73251 -2.73783,-2.73251 -1.9919,-1.04194 -1.991906,-1.04194 -1.848096,-0.63613 -1.848096,-0.63613 -2.257409,-0.19109 -2.257409,-0.19108 -2.702591,0.54186 -2.702591,0.54187 -3.946611,1.30627 -3.946612,1.30627 -3.893388,1.97372 -3.893389,1.97372 -2.88,1.79051 -2.88,1.79052 -2.599078,2.25067 -2.599078,2.25068 -1.223729,1.69862 -1.223729,1.69862 -3.604499,4.64 -3.604499,4.64 -1.924825,2.63118 -1.924825,2.63118 -1.527869,1.11252 -1.52787,1.11251 -0.101255,-0.78369 -0.101255,-0.7837 h -0.618745 -0.618745 v -0.9558 -0.95579 l 3.094899,-4.56421 3.094899,-4.5642 1.087738,-1.44 1.087738,-1.44 3.417363,-3.78096 3.417363,-3.78095 1.863364,-2.77905 1.863363,-2.77904 1.90663,-3.84 1.90663,-3.84 0.518626,-2.4 0.518626,-2.4 -0.0075,-3.52 -0.0075,-3.52 -0.539148,-2.88 -0.539148,-2.88 -0.655496,-2.24 -0.655496,-2.24 -1.245708,-2.61923 -1.245708,-2.61922 -1.890057,-2.50829 -1.890057,-2.5083 -3.470758,-2.90198 -3.470758,-2.90197 -2.56,-1.70599 -2.56,-1.70598 -2.56,-1.93605 -2.56,-1.93606 -1.38104,-1.26861 -1.381039,-1.268618 -0.674872,-0.94777 -0.674872,-0.94777 1.454812,0.163978 1.454812,0.163979 0.9211,0.461669 0.921099,0.461668 0.827438,0.544635 0.827438,0.544635 -1.067438,-2.120889 -1.067438,-2.12089 0,-0.601474 0,-0.601473 0.821037,0 0.821038,0 0.601973,0.322166 0.601973,0.322166 2.481267,3.757595 2.481268,3.757593 2.255722,2.24363 2.255722,2.24362 2.72,2.1811 2.72,2.18111 1.840885,0.94056 1.840884,0.94057 2.639116,0.63979 2.639116,0.63979 2.88,0.18857 2.88,0.18858 0.857415,-0.33691 0.857415,-0.33692 0.98564,-1.3765 0.985639,-1.37651 3.786962,-5.12 3.786962,-5.12 3.150416,-3.52 3.150416,-3.52 3.844687,-4.48 3.844688,-4.48 2.845107,-3.84 2.845111,-3.84 1.23484,-2.08 1.23485,-2.08 1.31614,-3.328636 1.31614,-3.328636 1.45258,-2.911364 1.45259,-2.911364 0.66198,-0.72 0.66198,-0.72 0.57296,0 0.57297,0 0.36055,0.673695 0.36055,0.673695 -0.19949,1.063379 -0.1995,1.06338 -1.39122,3.302925 -1.39123,3.302926 -1.91871,4.32 -1.91871,4.32 -0.53644,2.56 -0.53644,2.56 -0.18635,3.84 -0.18635,3.84 0.37273,3.797347 0.37273,3.797348 0.80111,4.682655 0.80112,4.68265 0.65222,2.4 0.65223,2.4 0.53685,1.10784 0.53686,1.10783 2.18751,1.68756 2.18751,1.68756 1.28324,0.38447 1.28323,0.38447 2.12926,-0.36707 2.12925,-0.36707 3.52,-1.17818 3.52,-1.17817 4.96,-2.06097 4.96,-2.06098 2.72,-1.45489 2.72,-1.45488 1.6,-0.80806 1.6,-0.80805 7.55108,-5.22445 7.55108,-5.224447 1.40892,-0.639229 1.40892,-0.639229 1.39919,-0.007 1.39918,-0.007 -0.38568,0.464719 -0.38569,0.464719 -0.0957,0.871946 -0.0957,0.871945 -0.57894,0.423335 -0.57895,0.423336 0.52332,0 0.52332,0 0.89784,0.789887 0.89784,0.789883 -0.60959,0.0101 -0.6096,0.0101 0.57919,0.64 0.5792,0.64 -1.34235,0 h -1.34234 l -1.23156,0.62829 -1.23155,0.6283 -2.3557,1.87152 -2.3557,1.87152 -5.76,4.15006 -5.76,4.15007 -4.32,3.02419 -4.32,3.02419 -3.68,3.08125 -3.68,3.08126 -2.88422,3.01752 -2.88423,3.01753 -1.67553,2.22715 -1.67552,2.22715 -1.24105,2.4 -1.24105,2.4 -0.38271,1.19604 -0.38271,1.19604 0.37067,1.84396 0.37066,1.84396 0.72656,1.12319 0.72655,1.12319 0.83264,2.87681 0.83263,2.87681 0.82729,2.99114 0.82728,2.99114 1.39969,6.17316 1.39969,6.17316 0.55516,1.07354 0.55515,1.07354 1.39152,4.14884 1.39153,4.14883 v 1.53332 1.53333 z m -7.39465,-15.36 h 0.0883 l -0.77495,-3.6 -0.77494,-3.6 -0.62123,-2.44191 -0.62124,-2.4419 -1.7863,-5.2381 -1.78629,-5.23809 -0.6374,-2.24 -0.63739,-2.24 0.17178,-1.57138 0.17179,-1.57138 0.66936,-2.01144 0.66937,-2.01145 1.52072,-2.53024 1.52073,-2.53025 1.93581,-2.36693 1.93581,-2.36693 3.32753,-3.2 3.32753,-3.2 2.71556,-2.17983 2.71556,-2.17982 4.24,-2.87378 4.24,-2.87379 v -0.14731 -0.14731 l -0.88,0.40092 -0.88,0.40092 -3.36,1.64785 -3.36,1.64785 -3.72498,1.46266 -3.72498,1.46265 -2.35502,0.78512 -2.35502,0.78512 -2.56,0.52717 -2.56,0.52718 -3.2,-0.37707 -3.2,-0.37706 -2.26206,-2.28574 -2.26206,-2.28573 -1.01967,-2.08 -1.01966,-2.08 -0.94104,-4.32 -0.94104,-4.32 -0.56688,-3.68 -0.56688,-3.68 -0.009,-6.78969 -0.009,-6.789689 -0.35789,0.389689 -0.35789,0.38969 -3.629437,4.48 -3.629437,4.48 -3.837504,4.411475 -3.837503,4.411475 -1.370103,1.82852 -1.370102,1.82853 -2.166186,3.96971 -2.166186,3.96972 -1.76,1.8196 -1.76,1.81961 -1.729943,0.57298 -1.729943,0.57299 -3.230057,-0.21023 -3.230057,-0.21024 -2.506797,-0.4986 -2.506798,-0.49861 -0.156715,0.15671 -0.156716,0.15672 1.939915,3.42384 1.939916,3.42384 0.794224,2.44598 0.794225,2.44598 0.55529,2.88 0.555291,2.88 0.01408,5.76 0.01408,5.76 -0.424397,1.28 -0.424397,1.28 -0.976561,2.49238 -0.97656,2.49237 0.120957,0.10651 0.120958,0.10651 5.6,-2.9852 5.6,-2.98521 3.52,-1.13971 3.52,-1.1397 2.50815,-0.47398 2.50815,-0.47397 3.09185,0.005 3.09185,0.005 1.920001,0.45523 1.92,0.45523 1.599997,0.70819 1.6,0.7082 1.97372,1.24393 1.97372,1.24393 2.82716,2.95727 2.82716,2.95726 2.27077,3.35065 2.27076,3.35065 1.86151,3.2 1.86152,3.2 1.57766,2.48 1.57765,2.48 z" id="path1" /></g></svg>